<svg width="17" height="18" viewBox="0 0 17 18" fill="none" xmlns="http://www.w3.org/2000/svg">
<path d="M1.6001 4.5H3.15565M3.15565 4.5H15.6001M3.15565 4.5V15C3.15565 15.3978 3.31954 15.7794 3.61126 16.0607C3.90299 16.342 4.29865 16.5 4.71121 16.5H12.489C12.9015 16.5 13.2972 16.342 13.5889 16.0607C13.8807 15.7794 14.0445 15.3978 14.0445 15V4.5M5.48899 4.5V3C5.48899 2.60218 5.65288 2.22064 5.9446 1.93934C6.23632 1.65804 6.63198 1.5 7.04454 1.5H10.1557C10.5682 1.5 10.9639 1.65804 11.2556 1.93934C11.5473 2.22064 11.7112 2.60218 11.7112 3V4.5" stroke="#1E1E1E" stroke-width="1.5" stroke-linecap="round" stroke-linejoin="round"/>
</svg>
