<svg width="20" height="22" viewBox="0 0 20 22" fill="none" xmlns="http://www.w3.org/2000/svg">
<path d="M9.05116 3.5031H2.78915C2.31464 3.5031 1.85956 3.70207 1.52403 4.05625C1.1885 4.41042 1 4.89077 1 5.39165V18.6115C1 19.1123 1.1885 19.5927 1.52403 19.9469C1.85956 20.301 2.31464 20.5 2.78915 20.5H15.3132C15.7877 20.5 16.2428 20.301 16.5783 19.9469C16.9138 19.5927 17.1023 19.1123 17.1023 18.6115V12.0016M15.7605 2.0867C16.1163 1.71104 16.599 1.5 17.1023 1.5C17.6056 1.5 18.0883 1.71104 18.4442 2.0867C18.8001 2.46235 19 2.97185 19 3.5031C19 4.03436 18.8001 4.54386 18.4442 4.91951L9.94574 13.8901L6.36744 14.8344L7.26201 11.0573L15.7605 2.0867Z" stroke="#1E1E1E" stroke-width="1.5" stroke-linecap="round" stroke-linejoin="round"/>
</svg>
