<svg width="25" height="24" viewBox="0 0 25 24" fill="none" xmlns="http://www.w3.org/2000/svg">
<g id="editar 1" clip-path="url(#clip0_1080_1757)">
<path id="Vector" d="M24.7494 4.22328C24.6044 4.89482 24.2143 5.41604 23.714 5.89349C20.3066 9.15405 16.9064 12.4213 13.5134 15.6953C13.3178 15.8885 13.071 16.0267 12.7998 16.095C11.2347 16.5051 9.67198 16.9244 8.10929 17.3419C7.84505 17.4122 7.59758 17.4116 7.39026 17.2118C7.18294 17.0119 7.18654 16.7729 7.25964 16.5207C7.70304 14.9818 8.14484 13.4427 8.58505 11.9034C8.63571 11.7218 8.73606 11.5565 8.87566 11.4248C12.3821 8.05824 15.8874 4.69132 19.3915 1.32401C20.4958 0.264292 22.0465 0.226857 23.2233 1.22495C23.5829 1.52531 23.9155 1.85438 24.2173 2.20865C24.4924 2.53694 24.6368 2.92454 24.7494 3.32482V4.22328ZM21.5695 6.20853C21.53 6.16476 21.4874 6.11234 21.4389 6.06569C20.6228 5.28012 19.8025 4.49857 18.9918 3.70781C18.8582 3.57708 18.7845 3.59263 18.658 3.71357C15.8802 6.38975 13.0988 9.06267 10.3137 11.7323C10.1753 11.8654 10.1759 11.9385 10.3137 12.0692C11.1258 12.8372 11.9311 13.6118 12.7297 14.3932C12.8848 14.5452 12.9693 14.5296 13.1137 14.3874C14.8714 12.6907 16.6306 10.9978 18.3914 9.30879C19.4012 8.33776 20.4109 7.36693 21.4203 6.39628C21.4748 6.34445 21.5438 6.30183 21.5695 6.20853ZM23.5223 3.89442C23.5223 3.44058 23.4132 3.12439 23.1628 2.8681C22.8799 2.58013 22.5941 2.29216 22.2832 2.03011C21.9045 1.71335 21.4515 1.63963 20.9649 1.76057C20.44 1.89131 20.1446 2.31117 19.7785 2.64176C19.703 2.70972 19.7576 2.7604 19.8091 2.80993C20.6643 3.63121 21.5184 4.45307 22.3712 5.27551C22.4647 5.36593 22.5228 5.34174 22.6001 5.26399C22.7667 5.09582 22.9441 4.93744 23.1094 4.76754C23.3773 4.49454 23.5247 4.17202 23.5223 3.89442ZM11.6847 15.0843C11.6607 15.0572 11.6373 15.0267 11.6104 15.0013C10.9712 14.387 10.3321 13.7727 9.69295 13.1583C9.59049 13.0593 9.54076 13.0864 9.5066 13.2061C9.26293 14.0585 9.01866 14.9105 8.77379 15.7622C8.73425 15.8986 8.77859 15.9257 8.91041 15.8883C9.15009 15.8203 9.38976 15.7593 9.62944 15.6959C10.2604 15.5283 10.8913 15.3624 11.5217 15.1925C11.5834 15.1741 11.6685 15.1805 11.6847 15.0843Z" fill="#585757"/>
<path id="Vector_2" d="M10.742 22.7263C8.33087 22.7263 5.91954 22.7263 3.50803 22.7263C2.91226 22.7263 2.35119 22.5821 1.86478 22.2039C1.1386 21.6399 0.752103 20.8852 0.751578 19.9303C0.749474 15.1331 0.749474 10.3361 0.751578 5.53926C0.751578 3.98377 1.89528 2.75323 3.375 2.73604C4.89993 2.71829 6.43013 2.73049 7.9577 2.73271C8.28425 2.73271 8.50457 2.90795 8.57083 3.19909C8.62341 3.43976 8.49826 3.7015 8.27057 3.82905C8.1612 3.8906 8.04499 3.8845 7.9293 3.8845C6.47693 3.8845 5.02473 3.8845 3.57271 3.8845C3.13889 3.8845 2.72716 3.9699 2.38747 4.28488C2.2274 4.42757 2.09675 4.60334 2.0036 4.80135C1.91044 4.99935 1.85676 5.21538 1.84585 5.43612C1.84165 5.50821 1.84217 5.5803 1.84217 5.65239C1.84217 10.3697 1.84217 15.0872 1.84217 19.8049C1.84217 20.5109 2.10141 21.0471 2.69666 21.3881C2.96537 21.5423 3.25879 21.5545 3.55536 21.5545H9.16345C12.0887 21.5545 15.014 21.5501 17.9387 21.5578C18.4856 21.5578 18.952 21.4042 19.3001 20.9445C19.4967 20.685 19.624 20.39 19.6251 20.0511C19.6293 18.4692 19.6324 16.8871 19.6345 15.3048C19.6326 15.1823 19.6406 15.0599 19.6582 14.9388C19.6797 14.8057 19.7434 14.6843 19.839 14.5944C19.9345 14.5045 20.0562 14.4515 20.184 14.4441C20.4217 14.4397 20.6573 14.636 20.7193 14.8994C20.739 14.9904 20.7484 15.0834 20.7472 15.1767C20.7472 16.7294 20.7535 18.2821 20.7472 19.8349C20.7409 21.265 19.8827 22.3858 18.5912 22.663C18.3683 22.7082 18.1415 22.7294 17.9145 22.7263C15.5237 22.7263 13.1328 22.7263 10.742 22.7263Z" fill="#585757"/>
</g>
<defs>
<clipPath id="clip0_1080_1757">
<rect width="24" height="23" fill="white" transform="translate(0.75 0.5)"/>
</clipPath>
</defs>
</svg>
