<svg width="21" height="20" viewBox="0 0 21 20" fill="none" xmlns="http://www.w3.org/2000/svg">
<g id="Frame 239">
<path id="Vector" d="M9.25 15H11.25V9H9.25V15ZM10.25 7C10.5333 7 10.771 6.904 10.963 6.712C11.155 6.52 11.2507 6.28267 11.25 6C11.2493 5.71733 11.1533 5.48 10.962 5.288C10.7707 5.096 10.5333 5 10.25 5C9.96667 5 9.72933 5.096 9.538 5.288C9.34667 5.48 9.25067 5.71733 9.25 6C9.24933 6.28267 9.34533 6.52033 9.538 6.713C9.73067 6.90567 9.968 7.00133 10.25 7ZM10.25 20C8.86667 20 7.56667 19.7373 6.35 19.212C5.13334 18.6867 4.075 17.9743 3.175 17.075C2.275 16.1757 1.56267 15.1173 1.038 13.9C0.513335 12.6827 0.250668 11.3827 0.250001 10C0.249335 8.61733 0.512001 7.31733 1.038 6.1C1.564 4.88267 2.27633 3.82433 3.175 2.925C4.07367 2.02567 5.132 1.31333 6.35 0.788C7.568 0.262667 8.868 0 10.25 0C11.632 0 12.932 0.262667 14.15 0.788C15.368 1.31333 16.4263 2.02567 17.325 2.925C18.2237 3.82433 18.9363 4.88267 19.463 6.1C19.9897 7.31733 20.252 8.61733 20.25 10C20.248 11.3827 19.9853 12.6827 19.462 13.9C18.9387 15.1173 18.2263 16.1757 17.325 17.075C16.4237 17.9743 15.3653 18.687 14.15 19.213C12.9347 19.739 11.6347 20.0013 10.25 20ZM10.25 18C12.4833 18 14.375 17.225 15.925 15.675C17.475 14.125 18.25 12.2333 18.25 10C18.25 7.76667 17.475 5.875 15.925 4.325C14.375 2.775 12.4833 2 10.25 2C8.01667 2 6.125 2.775 4.575 4.325C3.025 5.875 2.25 7.76667 2.25 10C2.25 12.2333 3.025 14.125 4.575 15.675C6.125 17.225 8.01667 18 10.25 18Z" fill="#585757"/>
</g>
</svg>
