<svg width="97" height="92" viewBox="0 0 97 92" fill="none" xmlns="http://www.w3.org/2000/svg">
<rect x="2" y="2" width="93" height="88" rx="44" stroke="white" stroke-width="4"/>
<path d="M56.1481 66.9261V63.3249V63.3246C56.1477 62.9836 56.1325 62.6951 56.0861 62.4568C56.0396 62.217 55.958 62.0088 55.8106 61.8454C55.5157 61.5184 55.0391 61.4612 54.4417 61.4612H28.548C28.011 61.4612 27.5701 61.5484 27.2635 61.7833C26.9399 62.0313 26.8159 62.4027 26.8257 62.8446L26.8257 62.8448C26.8356 63.2695 26.9666 63.6226 27.2877 63.8554C27.5909 64.0751 28.0203 64.1537 28.5461 64.1538C36.7614 64.1643 44.9757 64.1602 53.1889 64.1415H53.1891C53.4659 64.1406 53.5534 64.1894 53.5895 64.2293C53.6319 64.2762 53.6776 64.3895 53.6713 64.7003C53.6461 65.9323 53.6506 67.1657 53.6551 68.3956C53.6568 68.87 53.6586 69.3439 53.6586 69.8169C53.6422 70.0664 53.6914 70.3168 53.8017 70.5386C53.913 70.7623 54.0829 70.9491 54.2938 71.0729C54.5126 71.2076 54.7654 71.2686 55.0192 71.2451C55.2715 71.2217 55.5087 71.1165 55.7016 70.947C55.8516 70.828 55.9923 70.6978 56.1249 70.5751L56.1282 70.572L56.1283 70.5719L66.9167 60.5737L66.9169 60.5735C67.7697 59.7811 68.6238 58.9906 69.4778 58.2001C70.643 57.1216 71.8082 56.0431 72.9698 54.9602L72.7993 54.7773L72.9698 54.9602C73.4557 54.5071 73.7606 54.0658 73.7497 53.5777C73.7389 53.0923 73.4174 52.6571 72.9204 52.2111C72.751 52.059 72.5809 51.9079 72.4114 51.7572L72.4109 51.7568C72.2411 51.6059 72.0718 51.4554 71.9034 51.3042L71.9032 51.3041C66.5842 46.5366 61.2673 41.7673 55.9524 36.9963L55.9523 36.9961C55.7495 36.8144 55.5203 36.6385 55.2567 36.5515C54.9794 36.4601 54.6825 36.473 54.3667 36.6331C53.7039 36.969 53.6602 37.6343 53.6602 38.1821L53.6602 38.184C53.6669 39.0973 53.665 40.0155 53.6631 40.935C53.6605 42.1639 53.6579 43.3951 53.6761 44.6197L53.6761 44.6198C53.6808 44.9316 53.6357 45.0455 53.5931 45.0929C53.5574 45.1326 53.4711 45.1816 53.1941 45.1817C50.5517 45.1606 47.908 45.1633 45.2655 45.1659C44.3847 45.1668 43.5041 45.1676 42.6236 45.1676C42.2111 45.1676 41.8726 45.1751 41.605 45.2201C41.3337 45.2657 41.0996 45.3551 40.9281 45.547C40.7604 45.7346 40.6849 45.9844 40.6459 46.2753C40.6067 46.5673 40.5999 46.9395 40.5999 47.4015V50.6856C40.5553 50.6497 40.5134 50.6087 40.4749 50.5629L40.4641 50.55L40.4517 50.5387C35.8992 46.3989 31.3398 42.2673 26.7736 38.1439L26.7736 38.1439C26.5753 37.9649 26.5471 37.8875 26.5455 37.8579C26.5446 37.8396 26.5528 37.7636 26.7578 37.5783L26.7582 37.5779C31.3335 33.4257 35.9077 29.2793 40.4809 25.1388C40.5193 25.1044 40.5566 25.0641 40.5848 25.0339C40.5896 25.0287 40.5941 25.0238 40.5983 25.0193V25.0251V25.0341V25.043V25.052V25.061V25.0699V25.0789V25.0878V25.0968V25.1058V25.1147V25.1237V25.1327V25.1416V25.1506V25.1595V25.1685V25.1775V25.1864V25.1954V25.2043V25.2133V25.2223V25.2312V25.2402V25.2491V25.2581V25.2671V25.276V25.285V25.2939V25.3029V25.3119V25.3208V25.3298V25.3387V25.3477V25.3567V25.3656V25.3746V25.3835V25.3925V25.4015V25.4104V25.4194V25.4283V25.4373V25.4463V25.4552V25.4642V25.4731V25.4821V25.4911V25.5V25.509V25.5179V25.5269V25.5359V25.5448V25.5538V25.5627V25.5717V25.5807V25.5896V25.5986V25.6075V25.6165V25.6255V25.6344V25.6434V25.6523V25.6613V25.6703V25.6792V25.6882V25.6971V25.7061V25.7151V25.724V25.733V25.7419V25.7509V25.7598V25.7688V25.7778V25.7867V25.7957V25.8046V25.8136V25.8226V25.8315V25.8405V25.8494V25.8584V25.8674V25.8763V25.8853V25.8942V25.9032V25.9121V25.9211V25.9301V25.939V25.948V25.9569V25.9659V25.9749V25.9838V25.9928V26.0017V26.0107V26.0196V26.0286V26.0376V26.0465V26.0555V26.0644V26.0734V26.0824V26.0913V26.1003V26.1092V26.1182V26.1271V26.1361V26.1451V26.154V26.163V26.1719V26.1809V26.1898V26.1988V26.2078V26.2167V26.2257V26.2346V26.2436V26.2526V26.2615V26.2705V26.2794V26.2884V26.2973V26.3063V26.3153V26.3242V26.3332V26.3421V26.3511V26.36V26.369V26.378V26.3869V26.3959V26.4048V26.4138V26.4227V26.4317V26.4407V26.4496V26.4586V26.4675V26.4765V26.4854V26.4944V26.5034V26.5123V26.5213V26.5302V26.5392V26.5481V26.5571V26.566V26.575V26.584V26.5929V26.6019V26.6108V26.6198V26.6287V26.6377V26.6467V26.6556V26.6646V26.6735V26.6825V26.6914V26.7004V26.7093V26.7183V26.7273V26.7362V26.7452V26.7541V26.7631V26.772V26.781V26.79V26.7989V26.8079V26.8168V26.8258V26.8347V26.8437V26.8526V26.8616V26.8706V26.8795V26.8885V26.8974V26.9064V26.9153V26.9243V26.9332V26.9422V26.9512V26.9601V26.9691V26.978V26.987V26.9959V27.0049V27.0138V27.0228V27.0318V27.0407V27.0497V27.0586V27.0676V27.0765V27.0855V27.0944V27.1034V27.1123V27.1213V27.1303V27.1392V27.1482V27.1571V27.1661V27.175V27.184V27.1929V27.2019V27.2109V27.2198V27.2288V27.2377V27.2467V27.2556V27.2646V27.2735V27.2825V27.2914V27.3004V27.3094V27.3183V27.3273V27.3362V27.3452V27.3541V27.3631V27.372V27.381V27.3899V27.3989V27.4078V27.4168V27.4258V27.4347V27.4437V27.4526V27.4616V27.4705V27.4795V27.4884V27.4974V27.5063V27.5153V27.5242V27.5332V27.5422V27.5511V27.5601V27.569V27.578V27.5869V27.5959V27.6048V27.6138V27.6227V27.6317V27.6406V27.6496V27.6586V27.6675V27.6765V27.6854V27.6944V27.7033V27.7123V27.7212V27.7302V27.7391V27.7481V27.757V27.766V27.7749V27.7839V27.7928V27.8018V27.8108V27.8197V27.8287V27.8376V27.8466V27.8555V27.8645V27.8734V27.8824V27.8913V27.9003V27.9092V27.9182V27.9271V27.9361V27.945V27.954V27.9629V27.9719V27.9809V27.9898V27.9988V28.0077V28.0167V28.0256V28.0346V28.0435V28.0525V28.0614V28.0704V28.0793V28.0883V28.0972V28.1062V28.1151V28.1241V28.133V28.142V28.1509V28.1599V28.1688V28.1778V28.1867V28.1957V28.2047V28.2136V28.2226V28.2315V28.2405V28.2494V28.2584V28.2673V28.2763V28.2852V28.2942V28.3031V28.3121V28.321V28.33V28.3389V28.3479V28.3568V28.3658V28.3747V28.3837V28.3926V28.4016V28.4105V28.4195V28.4284V28.4374V28.4463V28.4553V28.4642V28.4732V28.4821V28.4911V28.5V28.509V28.5179V28.5269V28.5358V28.5448V28.5537V28.5627V28.5716V28.5806V28.5895V28.5985V28.6074V28.6164V28.6254V28.6343V28.6433V28.6522V28.6612V28.6701V28.6791V28.688V28.697V28.7059V28.7149V28.7238V28.7328V28.7417V28.7507V28.7596V28.7686V28.7775V28.7865V28.7954V28.8044V28.8133V28.8223V28.8312V28.8402V28.8491V28.8581V28.867V28.876V28.8849V28.8939V28.9028V28.9117V28.9207V28.9296V28.9386V28.9475V28.9565V28.9654V28.9744V28.9833V28.9923V29.0012V29.0102V29.0191V29.0281V29.037V29.046V29.0549V29.0639V29.0728V29.0818V29.0907V29.0997V29.1086V29.1176V29.1265V29.1355V29.1444V29.1534V29.1623V29.1713V29.1802V29.1892V29.1981V29.2071V29.216V29.225V29.2339V29.2429V29.2518V29.2608V29.2697C40.5983 29.5892 40.6148 29.8627 40.6624 30.0915C40.7104 30.3219 40.7929 30.5224 40.9362 30.6811C41.2244 31.0003 41.6807 31.0668 42.246 31.0668H68.25C68.4595 31.0759 68.6693 31.0683 68.8777 31.0441L68.8777 31.0443L68.8874 31.0428C69.1947 30.9949 69.4679 30.8213 69.6558 30.566L69.4544 30.4178L69.6558 30.566C69.8412 30.314 69.9323 29.9986 69.9161 29.6815C69.9219 29.3734 69.8237 29.0705 69.6355 28.8327C69.445 28.5919 69.1743 28.4338 68.8745 28.3989M56.1481 66.9261L70.1005 54.0117L70.1006 54.0115L70.1012 54.011C70.2603 53.8635 70.364 53.7674 70.4305 53.6911C70.4588 53.6586 70.4733 53.6375 70.4804 53.6254C70.4734 53.6139 70.4594 53.594 70.4327 53.5639C70.3668 53.4896 70.2634 53.3959 70.1035 53.2515C65.5069 49.1307 60.9102 45.0116 56.3135 40.8942C56.2634 40.8495 56.2174 40.7961 56.1832 40.7563L56.1817 40.7546C56.1661 40.7365 56.1523 40.7205 56.1397 40.7061C56.1418 40.7365 56.1454 40.7705 56.1498 40.8106L56.1504 40.8163C56.1564 40.8703 56.1639 40.9391 56.1639 41.0044V41.0058C56.1576 42.1751 56.1597 43.3436 56.1618 44.5101C56.1629 45.0926 56.1639 45.6747 56.1639 46.2561C56.1639 46.7656 56.0826 47.184 55.825 47.4699C55.561 47.763 55.1675 47.8576 54.6976 47.8585H54.6971C53.7242 47.8585 52.751 47.8597 51.7774 47.8609C49.0505 47.8643 46.3211 47.8677 43.5904 47.8444C43.2934 47.8446 43.2034 47.8986 43.1667 47.9417C43.1203 47.9961 43.0782 48.1209 43.0861 48.4479L43.0861 48.4481C43.1085 49.3966 43.1047 50.353 43.1009 51.3053C43.0982 51.9764 43.0956 52.6455 43.1021 53.3085L43.1021 53.3109C43.1021 53.8495 43.0383 54.4752 42.4191 54.805C42.1205 54.9641 41.825 54.9844 41.5459 54.904C41.2764 54.8263 41.0364 54.659 40.8261 54.4677L40.8259 54.4675C36.5192 50.5456 32.2097 46.6282 27.8977 42.7156L27.8973 42.7153C26.6135 41.5461 25.3291 40.3798 24.0442 39.2164L24.0436 39.2158C23.5622 38.7769 23.2547 38.3421 23.2501 37.8616C23.2454 37.3787 23.5469 36.9453 24.0267 36.5112C24.0267 36.5111 24.0268 36.5111 24.0268 36.511L40.761 21.2932L40.7613 21.2929C40.968 21.1056 41.2034 20.9182 41.4725 20.8204C41.7558 20.7175 42.0637 20.7185 42.3914 20.8828C43.0721 21.224 43.1052 21.94 43.1021 22.4969L43.1021 22.4971C43.0947 23.6662 43.0971 24.8345 43.0996 26.0008C43.1008 26.5835 43.1021 27.1656 43.1021 27.7472C43.1021 27.9696 43.1024 28.1183 43.113 28.226C43.1207 28.304 43.1321 28.3349 43.1364 28.3443C43.1448 28.3481 43.1663 28.3554 43.2121 28.3614C43.3012 28.3732 43.4277 28.3742 43.6279 28.3742H68.1254C68.3753 28.3586 68.626 28.3668 68.8745 28.3989M56.1481 66.9261L59.4042 63.915L56.1481 66.9261ZM68.8745 28.3989C68.8751 28.3989 68.8756 28.399 68.8762 28.3991L68.8441 28.647L68.8727 28.3987C68.8733 28.3987 68.8739 28.3988 68.8745 28.3989ZM56.1432 40.6002C56.1433 40.6003 56.1429 40.6019 56.1417 40.6043C56.1424 40.6012 56.143 40.6 56.1432 40.6002ZM43.1318 28.3419C43.1318 28.3418 43.1323 28.3421 43.1332 28.3428C43.1321 28.3422 43.1317 28.3419 43.1318 28.3419Z" fill="white" stroke="white" stroke-width="0.5"/>
</svg>
