<svg width="21" height="20" viewBox="0 0 21 20" fill="none" xmlns="http://www.w3.org/2000/svg">
<g id="material-symbols:history" clip-path="url(#clip0_1080_1761)">
<path id="Vector" d="M9.75 20C7.32222 20 5.20689 19.153 3.404 17.4589C1.60111 15.7648 0.56737 13.6489 0.302778 11.1111H2.46667C2.71296 13.037 3.5268 14.6296 4.90817 15.8889C6.28954 17.1481 7.90348 17.7778 9.75 17.7778C11.8083 17.7778 13.5546 17.0233 14.9887 15.5144C16.4229 14.0056 17.1396 12.1674 17.1389 10C17.1382 7.83259 16.4215 5.99481 14.9887 4.48667C13.556 2.97852 11.8097 2.2237 9.75 2.22222C8.53611 2.22222 7.40139 2.51852 6.34583 3.11111C5.29028 3.7037 4.40185 4.51852 3.68056 5.55555H6.58333V7.77778H0.25V1.11111H2.36111V3.72222C3.25833 2.53704 4.35365 1.62037 5.64705 0.972222C6.94046 0.324074 8.30811 0 9.75 0C11.0694 0 12.3055 0.264074 13.4582 0.792222C14.6108 1.32037 15.6136 2.03296 16.4665 2.93C17.3194 3.82704 17.9967 4.88259 18.4984 6.09667C19.0002 7.31074 19.2507 8.61185 19.25 10C19.2493 11.3881 18.9988 12.6893 18.4984 13.9033C17.9981 15.1174 17.3208 16.173 16.4665 17.07C15.6122 17.967 14.6094 18.68 13.4582 19.2089C12.3069 19.7378 11.0709 20.0015 9.75 20ZM12.7056 14.6667L8.69444 10.4444V4.44444H10.8056V9.55555L14.1833 13.1111L12.7056 14.6667Z" fill="#585757"/>
</g>
<defs>
<clipPath id="clip0_1080_1761">
<rect width="24" height="24" fill="white" transform="translate(0.25)"/>
</clipPath>
</defs>
</svg>
