<svg width="21" height="20" viewBox="0 0 21 20" fill="none" xmlns="http://www.w3.org/2000/svg">
<g id="caixote-de-lixo 1" clip-path="url(#clip0_1080_1763)">
<path id="Vector" d="M4.35757 19.1206L4.35752 19.1206C4.13285 18.7879 4.0722 18.4212 4.03462 18.0793M4.35757 19.1206L2.75175 6.6555C2.75585 6.65638 2.7588 6.65724 2.76084 6.65793M4.35757 19.1206C4.84867 19.847 5.60632 20.1484 6.51902 20.1484H6.5276H6.53618H6.54476H6.55334H6.56192H6.5705H6.57908H6.58766H6.59624H6.60482H6.6134H6.62198H6.63057H6.63915H6.64773H6.65631H6.66489H6.67347H6.68205H6.69063H6.69921H6.70779H6.71637H6.72495H6.73353H6.74212H6.7507H6.75928H6.76786H6.77644H6.78502H6.7936H6.80218H6.81076H6.81934H6.82792H6.8365H6.84508H6.85367H6.86225H6.87083H6.87941H6.88799H6.89657H6.90515H6.91373H6.92231H6.93089H6.93947H6.94805H6.95663H6.96522H6.9738H6.98238H6.99096H6.99954H7.00812H7.0167H7.02528H7.03386H7.04244H7.05102H7.0596H7.06819H7.07677H7.08535H7.09393H7.10251H7.11109H7.11967H7.12825H7.13683H7.14541H7.15399H7.16257H7.17116H7.17974H7.18832H7.1969H7.20548H7.21406H7.22264H7.23122H7.2398H7.24838H7.25696H7.26554H7.27413H7.28271H7.29129H7.29987H7.30845H7.31703H7.32561H7.33419H7.34277H7.35135H7.35993H7.36852H7.3771H7.38568H7.39426H7.40284H7.41142H7.42H7.42858H7.43716H7.44574H7.45432H7.46291H7.47149H7.48007H7.48865H7.49723H7.50581H7.51439H7.52297H7.53155H7.54013H7.54872H7.5573H7.56588H7.57446H7.58304H7.59162H7.6002H7.60878H7.61736H7.62594H7.63452H7.64311H7.65169H7.66027H7.66885H7.67743H7.68601H7.69459H7.70317H7.71175H7.72034H7.72892H7.7375H7.74608H7.75466H7.76324H7.77182H7.7804H7.78898H7.79756H7.80615H7.81473H7.82331H7.83189H7.84047H7.84905H7.85763H7.86621H7.87479H7.88338H7.89196H7.90054H7.90912H7.9177H7.92628H7.93486H7.94344H7.95202H7.96061H7.96919H7.97777H7.98635H7.99493H8.00351H8.01209H8.02067H8.02926H8.03784H8.04642H8.055H8.06358H8.07216H8.08074H8.08932H8.09791H8.10649H8.11507H8.12365H8.13223H8.14081H8.14939H8.15797H8.16656H8.17514H8.18372H8.1923H8.20088H8.20946H8.21804H8.22662H8.23521H8.24379H8.25237H8.26095H8.26953H8.27811H8.28669H8.29528H8.30386H8.31244H8.32102H8.3296H8.33818H8.34676H8.35535H8.36393H8.37251H8.38109H8.38967H8.39825H8.40683H8.41542H8.424H8.43258H8.44116H8.44974H8.45832H8.4669H8.47549H8.48407H8.49265H8.50123H8.50981H8.51839H8.52698H8.53556H8.54414H8.55272H8.5613H8.56988H8.57846H8.58705H8.59563H8.60421H8.61279H8.62137H8.62995H8.63854H8.64712H8.6557H8.66428H8.67286H8.68144H8.69003H8.69861H8.70719H8.71577H8.72435H8.73293H8.74152H8.7501H8.75868H8.76726H8.77584H8.78443H8.79301H8.80159H8.81017H8.81875H8.82733H8.83592H8.8445H8.85308H8.86166H8.87024H8.87883H8.88741H8.89599H8.90457H8.91315H8.92173H8.93032H8.9389H8.94748H8.95606H8.96464H8.97323H8.98181H8.99039H8.99897H9.00755H9.01614H9.02472H9.0333H9.04188H9.05046H9.05905H9.06763H9.07621H9.08479H9.09337H9.10196H9.11054H9.11912H9.1277H9.13628H9.14487H9.15345H9.16203H9.17061H9.1792H9.18778H9.19636H9.20494H9.21352H9.22211H9.23069H9.23927H9.24785H9.25644H9.26502H9.2736H9.28218H9.29076H9.29935H9.30793H9.31651H9.32509H9.33368H9.34226H9.35084H9.35942H9.36801H9.37659H9.38517H9.39375H9.40234H9.41092H9.4195H9.42808H9.43666H9.44525H9.45383H9.46241H9.47099H9.47958H9.48816H9.49674H9.50532H9.51391H9.52249H9.53107H9.53965H9.54824H9.55682H9.5654H9.57399H9.58257H9.59115H9.59973H9.60832H9.6169H9.62548H9.63406H9.64265H9.65123H9.65981H9.66839H9.67698H9.68556H9.69414H9.70273H9.71131H9.71989H9.72847H9.73706H9.74564H9.75422H9.7628H9.77139H9.77997H9.78855H9.79714H9.80572H9.8143H9.82289H9.83147H9.84005H9.84863H9.85722H9.8658H9.87438H9.88297H9.89155H9.90013H9.90872H9.9173H9.92588H9.93446H9.94305H9.95163H9.96021H9.9688H9.97738H9.98596H9.99455H10.0031H10.0117H10.0203H10.0289H10.0375H10.046H10.0546H10.0632H10.0718H10.0804H10.089H10.0975H10.1061H10.1147H10.1233H10.1319H10.1405H10.149H10.1576H10.1662H10.1748H10.1834H10.192H10.2005H10.2091H10.2177H10.2263H10.2349H10.2435H10.252H10.2606H10.2692H10.2778H10.2864H10.295H10.3035H10.3121H10.3207H10.3293H10.3379H10.3465H10.355H10.3636H10.3722H10.3808H10.3894H10.398H10.4066H10.4151H10.4237H10.4323H10.4409H10.4495H10.4581H10.4666H10.4752H10.4838H10.4924H10.501H10.5096H10.5181H10.5267H10.5353H10.5439H10.5525H10.5611H10.5696H10.5782H10.5868H10.5954H10.604H10.6126H10.6211H10.6297H10.6383H10.6469H10.6555H10.6641H10.6727H10.6812H10.6898H10.6984H10.707H10.7156H10.7242H10.7327H10.7413H10.7499H10.7585H10.7671H10.7757H10.7842H10.7928H10.8014H10.81H10.8186H10.8272H10.8358H10.8443H10.8529H10.8615H10.8701H10.8787H10.8873H10.8958H10.9044H10.913C11.8542 20.1484 12.7951 20.15 13.7374 20.1516C14.2777 20.1525 14.8183 20.1534 15.3597 20.1541L15.3604 20.1541C16.0258 20.1517 16.595 19.9761 17.0186 19.6462C17.4439 19.3149 17.7115 18.8362 17.7846 18.2513L17.7847 18.2509M4.35757 19.1206L17.7847 18.2509M4.03462 18.0793L4.18373 18.063L4.03463 18.0794C4.03463 18.0794 4.03463 18.0794 4.03462 18.0793ZM4.03462 18.0793C3.98176 17.5994 3.93023 17.1203 3.87871 16.6415C3.8118 16.0194 3.74492 15.3978 3.67523 14.7751L3.67522 14.775C3.60611 14.1547 3.53487 13.5344 3.4636 12.9139L3.46359 12.9138C3.39233 12.2934 3.32104 11.6726 3.25187 11.0518C3.17034 10.3199 3.09102 9.58722 3.01172 8.85474C2.95653 8.34493 2.90135 7.83523 2.84545 7.32602L2.84543 7.32583C2.83596 7.2385 2.82384 7.15146 2.81137 7.06184C2.80921 7.04633 2.80704 7.03075 2.80487 7.01508C2.79033 6.90993 2.77597 6.80151 2.7668 6.69191L2.76678 6.69166C2.76528 6.67335 2.76259 6.66299 2.76084 6.65793M2.76084 6.65793C2.76504 6.65936 2.76533 6.66008 2.76363 6.65882C2.76089 6.65677 2.75958 6.65459 2.75953 6.65462C2.75952 6.65462 2.7596 6.65479 2.75976 6.65516C2.76005 6.6558 2.76041 6.65671 2.76084 6.65793ZM8.40225 0.0148105C10.0857 -0.0010306 11.7699 -0.0010306 13.4551 0.0148105C14.1726 0.0221654 14.5947 0.396129 14.6619 1.01393C14.6983 1.35476 14.6911 1.6968 14.6839 2.03872C14.6813 2.16278 14.6787 2.28682 14.6782 2.41078M8.40225 0.0148105L19.1694 6.50345C19.3159 6.50722 19.4625 6.50597 19.609 6.50471C19.6823 6.50408 19.7556 6.50345 19.8289 6.50345C20.4225 6.50062 20.7532 6.21944 20.7532 5.70517V3.50325C20.7519 2.9341 20.4381 2.66311 19.7793 2.66311M8.40225 0.0148105C7.6847 0.0221654 7.25613 0.397261 7.1909 1.0111L8.40225 0.0148105ZM14.6782 2.41078C14.6782 2.60031 14.7402 2.66763 14.9704 2.6665C16.2392 2.66068 17.508 2.66159 18.7771 2.66251C19.1111 2.66275 19.4452 2.66299 19.7793 2.66311M14.6782 2.41078L14.8282 2.41141C14.8282 2.41133 14.8282 2.41125 14.8282 2.41116M14.6782 2.41078H14.8282C14.8282 2.41091 14.8282 2.41104 14.8282 2.41116M19.7793 2.66311V2.51311M19.7793 2.66311V2.51311M19.7793 2.51311C19.4453 2.51299 19.1114 2.51275 18.7774 2.51251C17.5082 2.51159 16.2389 2.51068 14.9697 2.5165L14.9697 2.5165C14.9182 2.51676 14.8844 2.51301 14.8624 2.50777C14.848 2.50433 14.8416 2.50094 14.8395 2.49962M19.7793 2.51311L14.8395 2.49962M14.8282 2.41116C14.8287 2.2928 14.8312 2.17226 14.8338 2.05028C14.841 1.70548 14.8485 1.34916 14.811 0.998013L14.811 0.997716C14.774 0.657356 14.637 0.371395 14.399 0.170766C14.1623 -0.0288322 13.8406 -0.131245 13.4566 -0.135182L13.4565 -0.135183C11.7704 -0.151033 10.0852 -0.151033 8.40084 -0.135183L8.40071 -0.135182C8.01664 -0.131245 7.69369 -0.028535 7.45573 0.170456C7.21647 0.370538 7.07787 0.655745 7.04176 0.99504C7.00906 1.29478 7.01402 1.60332 7.01881 1.9005C7.02111 2.0438 7.02337 2.18446 7.02135 2.32022C7.01998 2.40954 7.01915 2.46223 7.01427 2.49908C7.01399 2.50119 7.01371 2.50314 7.01343 2.50492C7.00832 2.50575 7.00189 2.50662 6.99393 2.50741C6.94985 2.5118 6.88762 2.51198 6.78907 2.51198C5.07037 2.50971 3.35254 2.50971 1.63558 2.51198C1.35515 2.5123 1.10328 2.58959 0.917289 2.73954C0.728735 2.89154 0.617068 3.11144 0.612354 3.37212L0.612352 3.37224C0.598407 4.17876 0.598406 4.98471 0.612347 5.79011C0.612349 5.79019 0.61235 5.79028 0.612352 5.79037L14.8282 2.41116ZM14.8282 2.41116C14.8282 2.47486 14.837 2.49527 14.8395 2.49962M14.8282 2.41116L14.8395 2.49962M17.7847 18.2509C17.858 17.6505 17.9229 17.0503 17.9876 16.4518L17.989 16.4391C17.989 16.4389 17.989 16.4388 17.9891 16.4386L17.7847 18.2509ZM10.9216 6.65175H10.9215H4.03826H4.03783H4.0374H4.03697H4.03655H4.03612H4.03569H4.03526H4.03483H4.03441H4.03398H4.03355H4.03312H4.03269H4.03226H4.03184H4.03141H4.03098H4.03055H4.03012H4.02969H4.02927H4.02884H4.02841H4.02798H4.02755H4.02712H4.0267H4.02627H4.02584H4.02541H4.02498H4.02455H4.02412H4.0237H4.02327H4.02284H4.02241H4.02198H4.02155H4.02112H4.0207H4.02027H4.01984H4.01941H4.01898H4.01855H4.01812H4.01769H4.01727H4.01684H4.01641H4.01598H4.01555H4.01512H4.01469H4.01426H4.01384H4.01341H4.01298H4.01255H4.01212H4.01169H4.01126H4.01083H4.0104H4.00998H4.00955H4.00912H4.00869H4.00826H4.00783H4.0074H4.00697H4.00654H4.00611H4.00569H4.00526H4.00483H4.0044H4.00397H4.00354H4.00311H4.00268H4.00225H4.00182H4.00139H4.00097H4.00054H4.00011H3.99968H3.99925H3.99882H3.99839H3.99796H3.99753H3.9971H3.99667H3.99624H3.99582H3.99539H3.99496H3.99453H3.9941H3.99367H3.99324H3.99281H3.99238H3.99195H3.99152H3.99109H3.99066H3.99023H3.9898H3.98938H3.98895H3.98852H3.98809H3.98766H3.98723H3.9868H3.98637H3.98594H3.98551H3.98508H3.98465H3.98422H3.98379H3.98336H3.98293H3.9825H3.98207H3.98164H3.98122H3.98079H3.98036H3.97993H3.9795H3.97907H3.97864H3.97821H3.97778H3.97735H3.97692H3.97649H3.97606H3.97563H3.9752H3.97477H3.97434H3.97391H3.97348H3.97305H3.97262H3.97219H3.97176H3.97133H3.9709H3.97047H3.97004H3.96961H3.96918H3.96876H3.96833H3.9679H3.96747H3.96704H3.96661H3.96618H3.96575H3.96532H3.96489H3.96446H3.96403H3.9636H3.96317H3.96274H3.96231H3.96188H3.96145H3.96102H3.96059H3.96016H3.95973H3.9593H3.95887H3.95844H3.95801H3.95758H3.95715H3.95672H3.95629H3.95586H3.95543H3.955H3.95457H3.95414H3.95371H3.95328H3.95285H3.95242H3.95199H3.95156H3.95113H3.9507H3.95027H3.94984H3.94941H3.94898H3.94855H3.94812H3.94769H3.94726H3.94683H3.9464H3.94597H3.94554H3.94511H3.94468H3.94425H3.94382H3.94339H3.94296H3.94253H3.9421H3.94167H3.94124H3.94081H3.94038H3.93995H3.93952H3.93909H3.93866H3.93823H3.9378H3.93737H3.93694H3.93651H3.93608H3.93565H3.93522H3.93479H3.93436H3.93393H3.9335H3.93307H3.93264H3.93221H3.93178H3.93135H3.93092H3.93049H3.93006H3.92963H3.9292H3.92877H3.92834H3.92791H3.92748H3.92705H3.92662H3.92619H3.92576H3.92533H3.9249H3.92447H3.92404H3.92361H3.92318H3.92275H3.92232H3.92189H3.92146H3.92103H3.9206H3.92017H3.91974H3.91931H3.91888H3.91845H3.91802H3.91759H3.91716H3.91673H3.9163H3.91587H3.91544H3.91501H3.91458H3.91415H3.91372H3.91329H3.91286H3.91243H3.912H3.91157H3.91114H3.91072H3.91028H3.90986H3.90943H3.909H3.90857H3.90814H3.90771H3.90728H3.90685H3.90642H3.90599H3.90556H3.90513H3.9047H3.90427H3.90384H3.90341H3.90298H3.90255H3.90212H3.90169H3.90126H3.90083H3.9004H3.89997H3.89954H3.89911H3.89868H3.89825H3.89782H3.89739H3.89696H3.89653H3.8961H3.89567H3.89524H3.89481H3.89438H3.89395H3.89352H3.89309H3.89266H3.89223H3.8918H3.89137H3.89094H3.89051H3.89008H3.88965H3.88922H3.88879H3.88836H3.88793H3.8875H3.88707H3.88664H3.88621H3.88578H3.88535H3.88492H3.8845H3.88407H3.88364H3.88321H3.88278H3.88235H3.88192H3.88149H3.88106H3.88063H3.8802H3.87977H3.87934H3.87891H3.87848H3.87805H3.87762H3.87719H3.87676H3.87633H3.8759H3.87547H3.87504H3.87461H3.87418H3.87375H3.87333H3.8729H3.87247H3.87204H3.87161H3.87118H3.87075H3.87032H3.86989H3.86946H3.86903H3.8686H3.86817H3.86774H3.86731H3.86688H3.86645H3.86602H3.8656H3.86517H3.86474H3.86431H3.86388H3.86345H3.86302H3.86259H3.86216H3.86173H3.8613H3.86087H3.86044H3.86001H3.85959H3.85916H3.85873H3.8583H3.85787H3.85744H3.85701H3.85658H3.85615H3.85572H3.85529H3.85486H3.85443H3.85401H3.85358H3.85315H3.85272H3.85229H3.85186H3.85143H3.851H3.85057H3.85014H3.84971H3.84929H3.84886H3.84843H3.848H3.84757H3.84714H3.84671H3.84628H3.84585H3.84543H3.845H3.84457H3.84414H3.84371H3.84328H3.84285H3.84242H3.84199H3.84157H3.84114H3.84071H3.84028H3.83985H3.83942H3.83899H3.83856H3.83814H3.83771H3.83728H3.83685H3.83642H3.83599H3.83556H3.83513H3.83471H3.83428H3.83385H3.83342H3.83299H3.83256H3.83213H3.83171H3.83128H3.83085H3.83042H3.82999H3.82956H3.82914H3.82871H3.82828H3.82785H3.82742H3.82699H3.82657H3.82614H3.82571H3.82528H3.82485H3.82442H3.824H3.82357H3.82314H3.82271H3.82228H3.82185H3.82143H3.821H3.82057H3.82014H3.81971H3.81929H3.81886H3.81843C3.81507 6.65175 3.81199 6.65182 3.80917 6.65193C3.81012 6.67494 3.8105 6.69837 3.81085 6.71929C3.811 6.72892 3.81115 6.73802 3.81134 6.7463C3.81212 6.77987 3.8136 6.80762 3.81741 6.83328L3.81815 6.83819L3.81806 6.8382C3.85245 7.13693 3.88724 7.4358 3.92205 7.73478C3.99743 8.38223 4.07286 9.0302 4.1443 9.67838M10.9216 6.65175L15.5353 19.345M10.9216 6.65175L17.8524 6.64893C17.8524 6.64893 17.8524 6.64893 17.8524 6.64893C17.9418 6.64893 17.9988 6.64954 18.0386 6.65385C18.0394 6.65394 18.0403 6.65404 18.0411 6.65413M10.9216 6.65175L18.0411 6.65413M4.1443 9.67838C4.2163 10.3246 4.2863 10.9739 4.35628 11.6229C4.42038 12.2174 4.48446 12.8117 4.55003 13.4033L4.55003 13.4033C4.62891 14.1154 4.70906 14.8282 4.78922 15.5411C4.88723 16.4128 4.98526 17.2847 5.08103 18.1558L5.08105 18.1559C5.14521 18.7441 5.64279 19.1934 6.30997 19.195C9.38469 19.1999 12.4596 19.1999 15.5348 19.195M4.1443 9.67838C4.14429 9.67834 4.14429 9.6783 4.14428 9.67827L3.99521 9.69488L4.1443 9.67844C4.1443 9.67842 4.1443 9.6784 4.1443 9.67838ZM15.5348 19.195C15.5349 19.195 15.535 19.195 15.5351 19.195L15.5353 19.345M15.5348 19.195C15.5347 19.195 15.5346 19.195 15.5345 19.195L15.5353 19.345M15.5348 19.195C15.8219 19.1933 16.097 19.1048 16.3128 18.9477C16.5283 18.7909 16.6693 18.5773 16.718 18.3466L16.7181 18.3461C16.7602 18.1496 16.7793 17.9531 16.7993 17.747C16.8071 17.6664 16.8151 17.5843 16.8246 17.5001L16.8247 17.4999C16.9668 16.2588 17.1084 15.0179 17.2493 13.7772M15.5353 19.345C15.8521 19.3432 16.1583 19.2457 16.4011 19.069C16.6438 18.8924 16.8078 18.6478 16.8647 18.3775C16.9088 18.1721 16.9291 17.9627 16.9494 17.7534C16.9571 17.6746 16.9648 17.5957 16.9737 17.517C17.1159 16.2757 17.2574 15.0347 17.3983 13.7938M17.2493 13.7772L17.3983 13.7938M17.2493 13.7772C17.2493 13.7771 17.2493 13.777 17.2493 13.7768L17.3983 13.7938M17.2493 13.7772C17.3081 13.2491 17.3653 12.7161 17.4225 12.1828C17.4839 11.6115 17.5452 11.0397 17.6087 10.4731M17.3983 13.7938C17.4576 13.262 17.5147 12.73 17.5718 12.198C17.6329 11.6285 17.694 11.059 17.7578 10.4898M17.7578 10.4898L17.6087 10.4731C17.6087 10.4731 17.6087 10.4731 17.6087 10.4731M17.7578 10.4898C17.8319 9.82549 17.9086 9.16138 17.9852 8.49726C18.0501 7.93454 18.1151 7.37181 18.1785 6.80896M17.7578 10.4898L17.6087 10.4731M17.6087 10.4731C17.6828 9.80933 17.7595 9.14426 17.8363 8.47951C17.9012 7.9165 17.9662 7.35372 18.0294 6.79216M18.1785 6.80896L18.0294 6.79228C18.0294 6.79224 18.0294 6.7922 18.0294 6.79216M18.1785 6.80896L18.0294 6.79216M18.1785 6.80896L18.0411 6.65413M18.0294 6.79216C18.0369 6.72597 18.0408 6.68352 18.0411 6.65413M10.4953 2.50971H10.8974C11.1422 2.50971 11.3872 2.50939 11.6323 2.50907C12.3065 2.50818 12.9814 2.5073 13.656 2.51311C13.7033 2.51309 13.7365 2.51068 13.7602 2.50634C13.7739 2.50383 13.7816 2.50116 13.7853 2.49955C13.788 2.49199 13.7918 2.47338 13.7905 2.43404C13.7816 2.17547 13.7832 1.90999 13.7848 1.64813C13.7858 1.46891 13.7869 1.29138 13.7846 1.11891L13.7845 1.1169C13.7845 0.975542 13.7504 0.910997 13.7099 0.87598C13.664 0.836334 13.575 0.80326 13.3995 0.802981L10.4953 2.50971ZM10.4953 2.50971L10.6689 2.66017M10.4953 2.50971L10.6689 2.66017M10.8974 2.66028V2.65971V2.66028ZM10.8974 2.66028C10.8972 2.66028 10.897 2.66028 10.8969 2.66028H10.8974ZM10.6689 2.66017C10.4966 2.66001 10.3244 2.65971 10.1522 2.65941C9.50582 2.65827 8.85945 2.65714 8.21308 2.66367M10.6689 2.66017L8.44596 0.652981C8.06957 0.652981 7.91301 0.789328 7.91041 1.11633M8.21308 2.66367L8.21156 2.51368L8.21121 2.51369L8.21308 2.66367ZM8.21308 2.66367C7.98673 2.6665 7.89475 2.61955 7.90388 2.40739M7.90388 2.40739L8.05374 2.41384L8.05376 2.41353L7.90388 2.40739ZM7.90388 2.40739C7.91503 2.13527 7.91311 1.86292 7.91119 1.59048C7.91008 1.43245 7.90897 1.27439 7.91041 1.11633M7.91041 1.11633L8.0604 1.1177L8.0604 1.11753L7.91041 1.11633ZM1.6082 6.65118C1.96522 6.65628 2.32644 6.658 2.68683 6.65116L1.6082 6.65118ZM19.0913 6.65853C19.0933 6.65792 19.0961 6.65719 19.0999 6.65646C19.113 6.65396 19.1334 6.65231 19.1643 6.65337L19.1655 6.6534C19.3145 6.65724 19.4657 6.65595 19.6139 6.65469C19.6865 6.65407 19.7584 6.65345 19.8289 6.65345L19.8296 6.65345C20.1476 6.65194 20.4183 6.57595 20.6114 6.40983C20.8083 6.24054 20.9032 5.99614 20.9032 5.70517V5.70087V5.69657V5.69227V5.68797V5.68368V5.67938V5.67508V5.67078V5.66648V5.66218V5.65788V5.65358V5.64928V5.64498V5.64068V5.63638V5.63208V5.62779V5.62349V5.61919V5.61489V5.61059V5.60629V5.60199V5.59769V5.59339V5.5891V5.5848V5.5805V5.5762V5.5719V5.5676V5.5633V5.559V5.5547V5.55041V5.54611V5.54181V5.53751V5.53321V5.52891V5.52461V5.52032V5.51602V5.51172V5.50742V5.50312V5.49882V5.49452V5.49023V5.48593V5.48163V5.47733V5.47303V5.46873V5.46444V5.46014V5.45584V5.45154V5.44724V5.44294V5.43865V5.43435V5.43005V5.42575V5.42145V5.41715V5.41286V5.40856V5.40426V5.39996V5.39566V5.39137V5.38707V5.38277V5.37847V5.37417V5.36988V5.36558V5.36128V5.35698V5.35268V5.34839V5.34409V5.33979V5.33549V5.33119V5.3269V5.3226V5.3183V5.314V5.3097V5.30541V5.30111V5.29681V5.29251V5.28821V5.28392V5.27962V5.27532V5.27102V5.26673V5.26243V5.25813V5.25383V5.24953V5.24524V5.24094V5.23664V5.23234V5.22805V5.22375V5.21945V5.21515V5.21086V5.20656V5.20226V5.19796V5.19366V5.18937V5.18507V5.18077V5.17647V5.17218V5.16788V5.16358V5.15928V5.15498V5.15069V5.14639V5.14209V5.13779V5.1335V5.1292V5.1249V5.1206V5.11631V5.11201V5.10771V5.10341V5.09912V5.09482V5.09052V5.08622V5.08193V5.07763V5.07333V5.06903V5.06473V5.06044V5.05614V5.05184V5.04754V5.04325V5.03895V5.03465V5.03035V5.02606V5.02176V5.01746V5.01316V5.00887V5.00457V5.00027V4.99597V4.99167V4.98738V4.98308V4.97878V4.97448V4.97019V4.96589V4.96159V4.95729V4.953V4.9487V4.9444V4.9401V4.9358V4.93151V4.92721V4.92291V4.91861V4.91432V4.91002V4.90572V4.90142V4.89713V4.89283V4.88853V4.88423V4.87993V4.87564V4.87134V4.86704V4.86274V4.85845V4.85415V4.84985V4.84555V4.84125V4.83696V4.83266V4.82836V4.82406V4.81976V4.81547V4.81117V4.80687V4.80257V4.79827V4.79398V4.78968V4.78538V4.78108V4.77678V4.77249V4.76819V4.76389V4.75959V4.75529V4.751V4.7467V4.7424V4.7381V4.7338V4.7295V4.72521V4.72091V4.71661V4.71231V4.70801V4.70372V4.69942V4.69512V4.69082V4.68652V4.68222V4.67793V4.67363V4.66933V4.66503V4.66073V4.65643V4.65213V4.64784V4.64354V4.63924V4.63494V4.63064V4.62634V4.62204V4.61775V4.61345V4.60915V4.60485V4.60055V4.59625V4.59195V4.58766V4.58336V4.57906V4.57476V4.57046V4.56616V4.56186V4.55756V4.55326V4.54897V4.54467V4.54037V4.53607V4.53177V4.52747V4.52317V4.51887V4.51457V4.51027V4.50597V4.50168V4.49738V4.49308V4.48878V4.48448V4.48018V4.47588V4.47158V4.46728V4.46298V4.45868V4.45438V4.45008V4.44578V4.44148V4.43718V4.43289V4.42859V4.42429V4.41999V4.41569V4.41139V4.40709V4.40279V4.39849V4.39419V4.38989V4.38559V4.38129V4.37699V4.37269V4.36839V4.36409V4.35979V4.35549V4.35119V4.34689V4.34259V4.33829V4.33399V4.32969V4.32539V4.32109V4.31679V4.31249V4.30818V4.30388V4.29958V4.29528V4.29098V4.28668V4.28238V4.27808V4.27378V4.26948V4.26518V4.26088V4.25658V4.25228V4.24797V4.24367V4.23937V4.23507V4.23077V4.22647V4.22217V4.21787V4.21357V4.20927V4.20496V4.20066V4.19636V4.19206V4.18776V4.18346V4.17916V4.17485V4.17055V4.16625V4.16195V4.15765V4.15335V4.14904V4.14474V4.14044V4.13614V4.13184V4.12754V4.12323V4.11893V4.11463V4.11033V4.10603V4.10172V4.09742V4.09312V4.08882V4.08451V4.08021V4.07591V4.07161V4.0673V4.063V4.0587V4.0544V4.05009V4.04579V4.04149V4.03719V4.03288V4.02858V4.02428V4.01997V4.01567V4.01137V4.00707V4.00276V3.99846V3.99416V3.98985V3.98555V3.98125V3.97694V3.97264V3.96834V3.96403V3.95973V3.95543V3.95112V3.94682V3.94251V3.93821V3.93391V3.9296V3.9253V3.92099V3.91669V3.91239V3.90808V3.90378V3.89947V3.89517V3.89087V3.88656V3.88226V3.87795V3.87365V3.86934V3.86504V3.86073V3.85643V3.85212V3.84782V3.84351V3.83921V3.8349V3.8306V3.82629V3.82199V3.81768V3.81338V3.80907V3.80477V3.80046V3.79616V3.79185V3.78755V3.78324V3.77893V3.77463V3.77032V3.76602V3.76171V3.75741V3.7531V3.74879V3.74449V3.74018V3.73588V3.73157V3.72726V3.72296V3.71865V3.71434V3.71004V3.70573V3.70142V3.69712V3.69281V3.6885V3.6842V3.67989V3.67558V3.67128V3.66697V3.66266V3.65835V3.65405V3.64974V3.64543V3.64112V3.63682V3.63251V3.6282V3.62389V3.61959V3.61528V3.61097V3.60666V3.60236V3.59805V3.59374V3.58943V3.58512V3.58081V3.57651V3.5722V3.56789V3.56358V3.55927V3.55496V3.55065V3.54635V3.54204V3.53773V3.53342V3.52911V3.5248V3.52049V3.51618V3.51187V3.50756V3.50325V3.50291C20.9025 3.19111 20.8153 2.93263 20.6108 2.75619C20.4108 2.58363 20.1253 2.51311 19.7793 2.51311L19.0913 6.65853ZM1.64812 5.61654L1.64813 5.61611C1.65484 5.11995 1.65382 4.62118 1.6528 4.12321C1.65243 3.94243 1.65206 3.76174 1.65206 3.58133C1.65206 3.50977 1.6528 3.46695 1.65634 3.43796C1.65901 3.43758 1.66198 3.43721 1.66528 3.43684C1.70264 3.43269 1.75613 3.43204 1.84126 3.43204H10.7512H19.6377C19.7313 3.43204 19.7908 3.4324 19.8329 3.43666C19.8395 3.43733 19.845 3.43805 19.8495 3.43874C19.8538 3.47123 19.8543 3.51903 19.8543 3.60113V3.60128C19.8545 3.80348 19.8541 4.00611 19.8537 4.20899C19.8528 4.6768 19.8519 5.14597 19.8583 5.61443C19.8588 5.65614 19.8552 5.68159 19.8508 5.69671C19.8488 5.70373 19.8469 5.70745 19.8459 5.70911C19.845 5.71058 19.8445 5.71113 19.8441 5.71152C19.841 5.71429 19.8141 5.73394 19.7005 5.73395C13.7356 5.72867 7.77077 5.72867 1.8059 5.73395C1.69208 5.73394 1.66478 5.71475 1.66155 5.71187C1.6612 5.71156 1.66077 5.71115 1.66003 5.70991C1.65917 5.70848 1.65736 5.70501 1.65538 5.69823C1.6511 5.68356 1.64744 5.65837 1.64812 5.61654ZM13.7831 2.50391C13.783 2.50377 13.7834 2.50281 13.7846 2.50145C13.7838 2.50337 13.7832 2.50405 13.7831 2.50391ZM3.80785 6.62836C3.80723 6.63021 3.80618 6.63276 3.80451 6.63568C3.80447 6.63576 3.80443 6.63583 3.80439 6.6359L3.80839 6.63568C3.80803 6.62887 3.80853 6.62595 3.80852 6.62595C3.80852 6.62595 3.80837 6.62681 3.80785 6.62836Z" fill="#585757" stroke="#585757" stroke-width="0.3"/>
<path id="Vector_2" d="M8.10738 15.4436L8.10676 15.4436C8.11092 15.6016 8.07743 15.7464 7.99096 15.8563C7.90166 15.9698 7.77177 16.0259 7.62691 16.033L7.62667 16.033C7.48965 16.0395 7.36112 15.9981 7.26228 15.9054C7.16498 15.8141 7.10925 15.6852 7.09105 15.5384L7.09105 15.5383C6.9606 14.481 6.8301 13.4228 6.70481 12.365C6.59872 11.4898 6.49197 10.6145 6.38458 9.73923L6.38456 9.73909C6.37295 9.64377 6.36535 9.54709 6.36327 9.44978L6.36327 9.44971C6.36077 9.3299 6.39041 9.21119 6.47341 9.11727C6.55612 9.02367 6.67439 8.97442 6.8098 8.95819L6.82765 9.10712M8.10738 15.4436L7.51732 10.4943C7.51461 10.4719 7.51189 10.4495 7.50918 10.4271C7.46696 10.0787 7.42441 9.72743 7.37197 9.37748M8.10738 15.4436L8.10579 15.43C8.08462 15.2499 8.06332 15.0676 8.04186 14.8839C7.99262 14.4623 7.94251 14.0333 7.89115 13.6064M8.10738 15.4436L7.61956 15.8832M6.82765 9.10712L6.80857 8.95834C6.94353 8.94103 7.0746 8.97041 7.17903 9.04682C7.28395 9.12359 7.35156 9.2403 7.37197 9.37748M6.82765 9.10712C7.03052 9.0811 7.1936 9.19764 7.22361 9.39962M6.82765 9.10712C6.60587 9.13371 6.50932 9.25931 6.51324 9.44658C6.51519 9.53823 6.52237 9.62988 6.53346 9.72097L7.22361 9.39962M7.37197 9.37748C7.37196 9.37745 7.37196 9.37742 7.37195 9.37739L7.22361 9.39962M7.37197 9.37748C7.37197 9.37751 7.37198 9.37754 7.37198 9.37757L7.22361 9.39962M7.61956 15.8832C7.41669 15.8928 7.26992 15.7621 7.23992 15.52L7.61956 15.8832ZM7.61956 15.8832C7.83874 15.8724 7.96399 15.7202 7.95681 15.4475C7.93562 15.2672 7.91431 15.0848 7.89285 14.901C7.8436 14.4794 7.79353 14.0508 7.7422 13.6241M7.7422 13.6241L7.89116 13.6064C7.89115 13.6064 7.89115 13.6064 7.89115 13.6064M7.7422 13.6241C7.61913 12.5861 7.49454 11.5489 7.36842 10.5125L7.7422 13.6241ZM7.89115 13.6064C7.76807 12.5683 7.64346 11.531 7.51733 10.4944L7.89115 13.6064Z" fill="#585757" stroke="#585757" stroke-width="0.3"/>
<path id="Vector_3" d="M15.4788 9.55509L15.4783 9.55503C15.4513 9.78457 15.4243 10.0152 15.3972 10.2465C15.3379 10.7533 15.2782 11.2635 15.2173 11.7736L15.2173 11.7737C15.1099 12.6699 15.0011 13.5664 14.8911 14.463C14.8829 14.5305 14.8748 14.5981 14.8667 14.6659C14.8303 14.9693 14.7936 15.275 14.7491 15.5794L14.7491 15.5795C14.7282 15.7214 14.6625 15.8431 14.5596 15.9256C14.4566 16.0082 14.3257 16.0438 14.1895 16.03C14.058 16.0166 13.9354 15.9616 13.8494 15.8618C13.7624 15.7607 13.7244 15.6271 13.7391 15.4806L13.7391 15.4801C13.7953 14.9367 13.8601 14.3941 13.9247 13.853C13.9354 13.7639 13.946 13.6749 13.9566 13.5859L13.9566 13.5858C14.0618 12.7032 14.168 11.8205 14.275 10.9378L14.275 10.9377C14.288 10.831 14.3009 10.7242 14.3138 10.6173C14.3608 10.227 14.4081 9.83523 14.4625 9.44447L15.4788 9.55509ZM15.4788 9.55509L15.4792 9.54284M15.4788 9.55509L15.4792 9.54284M15.4792 9.54284C15.4847 9.3887 15.4596 9.24565 15.3782 9.13541C15.293 9.01988 15.1658 8.96636 15.0245 8.95414C14.8838 8.94198 14.7485 8.97223 14.6423 9.06609M15.4792 9.54284L14.6423 9.06609M14.6423 9.06609C14.5386 9.15778 14.4837 9.29172 14.4625 9.4444L14.6423 9.06609Z" fill="#585757" stroke="#585757" stroke-width="0.3"/>
<path id="Vector_4" d="M11.4202 15.6334L11.4204 15.6334L11.4214 15.6255C11.4309 15.5481 11.4336 15.4701 11.4297 15.3923V15.3906V15.3849V15.3793V15.3736V15.3679V15.3623V15.3566V15.351V15.3453V15.3396V15.334V15.3283V15.3227V15.317V15.3113V15.3057V15.3V15.2944V15.2887V15.283V15.2774V15.2717V15.2661V15.2604V15.2547V15.2491V15.2434V15.2378V15.2321V15.2264V15.2208V15.2151V15.2095V15.2038V15.1981V15.1925V15.1868V15.1812V15.1755V15.1698V15.1642V15.1585V15.1529V15.1472V15.1416V15.1359V15.1302V15.1246V15.1189V15.1133V15.1076V15.1019V15.0963V15.0906V15.085V15.0793V15.0736V15.068V15.0623V15.0567V15.051V15.0453V15.0397V15.034V15.0284V15.0227V15.017V15.0114V15.0057V15.0001V14.9944V14.9887V14.9831V14.9774V14.9718V14.9661V14.9604V14.9548V14.9491V14.9435V14.9378V14.9321V14.9265V14.9208V14.9152V14.9095V14.9039V14.8982V14.8925V14.8869V14.8812V14.8756V14.8699V14.8642V14.8586V14.8529V14.8473V14.8416V14.8359V14.8303V14.8246V14.819V14.8133V14.8076V14.802V14.7963V14.7907V14.785V14.7793V14.7737V14.768V14.7624V14.7567V14.7511V14.7454V14.7397V14.7341V14.7284V14.7228V14.7171V14.7114V14.7058V14.7001V14.6945V14.6888V14.6831V14.6775V14.6718V14.6662V14.6605V14.6548V14.6492V14.6435V14.6379V14.6322V14.6265V14.6209V14.6152V14.6096V14.6039V14.5983V14.5926V14.5869V14.5813V14.5756V14.57V14.5643V14.5586V14.553V14.5473V14.5417V14.536V14.5303V14.5247V14.519V14.5134V14.5077V14.502V14.4964V14.4907V14.4851V14.4794V14.4738V14.4681V14.4624V14.4568V14.4511V14.4455V14.4398V14.4341V14.4285V14.4228V14.4172V14.4115V14.4058V14.4002V14.3945V14.3889V14.3832V14.3775V14.3719V14.3662V14.3606V14.3549V14.3493V14.3436V14.3379V14.3323V14.3266V14.321V14.3153V14.3096V14.304V14.2983V14.2927V14.287V14.2813V14.2757V14.27V14.2644V14.2587V14.2531V14.2474V14.2417V14.2361V14.2304V14.2248V14.2191V14.2134V14.2078V14.2021V14.1965V14.1908V14.1851V14.1795V14.1738V14.1682V14.1625V14.1569V14.1512V14.1455V14.1399V14.1342V14.1286V14.1229V14.1172V14.1116V14.1059V14.1003V14.0946V14.0889V14.0833V14.0776V14.072V14.0663V14.0607V14.055V14.0493V14.0437V14.038V14.0324V14.0267V14.021V14.0154V14.0097V14.0041V13.9984V13.9927V13.9871V13.9814V13.9758V13.9701V13.9645V13.9588V13.9531V13.9475V13.9418V13.9362V13.9305V13.9248V13.9192V13.9135V13.9079V13.9022V13.8966V13.8909V13.8852V13.8796V13.8739V13.8683V13.8626V13.8569V13.8513V13.8456V13.84V13.8343V13.8286V13.823V13.8173V13.8117V13.806V13.8004V13.7947V13.789V13.7834V13.7777V13.7721V13.7664V13.7607V13.7551V13.7494V13.7438V13.7381V13.7325V13.7268V13.7211V13.7155V13.7098V13.7042V13.6985V13.6928V13.6872V13.6815V13.6759V13.6702V13.6646V13.6589V13.6532V13.6476V13.6419V13.6363V13.6306V13.6249V13.6193V13.6136V13.608V13.6023V13.5967V13.591V13.5853V13.5797V13.574V13.5684V13.5627V13.557V13.5514V13.5457V13.5401V13.5344V13.5288V13.5231V13.5174V13.5118V13.5061V13.5005V13.4948V13.4891V13.4835V13.4778V13.4722V13.4665V13.4609V13.4552V13.4495V13.4439V13.4382V13.4326V13.4269V13.4212V13.4156V13.4099V13.4043V13.3986V13.393V13.3873V13.3816V13.376V13.3703V13.3647V13.359V13.3533V13.3477V13.342V13.3364V13.3307V13.3251V13.3194V13.3137V13.3081V13.3024V13.2968V13.2911V13.2854V13.2798V13.2741V13.2685V13.2628V13.2572V13.2515V13.2458V13.2402V13.2345V13.2289V13.2232V13.2175V13.2119V13.2062V13.2006V13.1949V13.1893V13.1836V13.1779V13.1723V13.1666V13.161V13.1553V13.1497V13.144V13.1383V13.1327V13.127V13.1214V13.1157V13.11V13.1044V13.0987V13.0931V13.0874V13.0818V13.0761V13.0704V13.0648V13.0591V13.0535V13.0478V13.0421V13.0365V13.0308V13.0252V13.0195V13.0139V13.0082V13.0025V12.9969V12.9912V12.9856V12.9799V12.9743V12.9686V12.9629V12.9573V12.9516V12.946V12.9403V12.9346V12.929V12.9233V12.9177V12.912V12.9064V12.9007V12.895V12.8894V12.8837V12.8781V12.8724V12.8668V12.8611V12.8554V12.8498V12.8441V12.8385V12.8328V12.8272V12.8215V12.8158V12.8102V12.8045V12.7989V12.7932V12.7875V12.7819V12.7762V12.7706V12.7649V12.7593V12.7536V12.7479V12.7423V12.7366V12.731V12.7253V12.7197V12.714V12.7083V12.7027V12.697V12.6914V12.6857V12.68V12.6744V12.6687V12.6631V12.6574V12.6518V12.6461V12.6404V12.6348V12.6291V12.6235V12.6178V12.6122V12.6065V12.6008V12.5952V12.5895V12.5839V12.5782V12.5726V12.5669V12.5612V12.5556V12.5499V12.5443V12.5386V12.533V12.5273V12.5216V12.516V12.5103V12.5047V12.499C11.4305 11.5278 11.4305 10.5571 11.4297 9.58696C11.4342 9.50812 11.4309 9.42909 11.4197 9.3508L11.4199 9.35076L11.4181 9.34175C11.3948 9.22874 11.3393 9.1281 11.2467 9.05739C11.1549 8.98729 11.0403 8.95703 10.9166 8.95845C10.794 8.95985 10.6801 8.99135 10.5895 9.06278C10.4977 9.13513 10.4443 9.2371 10.4236 9.35164L10.4234 9.3516L10.4224 9.35942C10.4127 9.43637 10.4099 9.51389 10.4141 9.59126V9.59842V9.60978V9.62114V9.6325V9.64386V9.65522V9.66658V9.67794V9.6893V9.70066V9.71202V9.72338V9.73474V9.74609V9.75745V9.76881V9.78017V9.79153V9.80289V9.81425V9.82561V9.83697V9.84833V9.85969V9.87105V9.88241V9.89376V9.90512V9.91648V9.92784V9.9392V9.95056V9.96192V9.97328V9.98464V9.996V10.0074V10.0187V10.0301V10.0414V10.0528V10.0642V10.0755V10.0869V10.0982V10.1096V10.1209V10.1323V10.1437V10.155V10.1664V10.1777V10.1891V10.2005V10.2118V10.2232V10.2345V10.2459V10.2573V10.2686V10.28V10.2913V10.3027V10.3141V10.3254V10.3368V10.3481V10.3595V10.3708V10.3822V10.3936V10.4049V10.4163V10.4276V10.439V10.4504V10.4617V10.4731V10.4844V10.4958V10.5072V10.5185V10.5299V10.5412V10.5526V10.5639V10.5753V10.5867V10.598V10.6094V10.6207V10.6321V10.6435V10.6548V10.6662V10.6775V10.6889V10.7003V10.7116V10.723V10.7343V10.7457V10.757V10.7684V10.7798V10.7911V10.8025V10.8138V10.8252V10.8366V10.8479V10.8593V10.8706V10.882V10.8934V10.9047V10.9161V10.9274V10.9388V10.9501V10.9615V10.9729V10.9842V10.9956V11.0069V11.0183V11.0297V11.041V11.0524V11.0637V11.0751V11.0865V11.0978V11.1092V11.1205V11.1319V11.1432V11.1546V11.166V11.1773V11.1887V11.2V11.2114V11.2228V11.2341V11.2455V11.2568V11.2682V11.2796V11.2909V11.3023V11.3136V11.325V11.3363V11.3477V11.3591V11.3704V11.3818V11.3931V11.4045V11.4159V11.4272V11.4386V11.4499V11.4613V11.4726V11.484V11.4954V11.5067V11.5181V11.5294V11.5408V11.5522V11.5635V11.5749V11.5862V11.5976V11.609V11.6203V11.6317V11.643V11.6544V11.6657V11.6771V11.6885V11.6998V11.7112V11.7225V11.7339V11.7453V11.7566V11.768V11.7793V11.7907V11.802V11.8134V11.8248V11.8361V11.8475V11.8588V11.8702V11.8816V11.8929V11.9043V11.9156V11.927V11.9383V11.9497V11.9611V11.9724V11.9838V11.9951V12.0065V12.0179V12.0292V12.0406V12.0519V12.0633V12.0746V12.086V12.0974V12.1087V12.1201V12.1314V12.1428V12.1542V12.1655V12.1769V12.1882V12.1996V12.2109V12.2223V12.2337V12.245V12.2564V12.2677V12.2791V12.2905V12.3018V12.3132V12.3245V12.3359V12.3472V12.3586V12.37V12.3813V12.3927V12.404V12.4154V12.4268V12.4381V12.4495V12.4608V12.4722V12.4835V12.4949V12.5063V12.5176V12.529V12.5403V12.5517V12.5631V12.5744V12.5858V12.5971V12.6085V12.6198V12.6312V12.6426V12.6539V12.6653V12.6766V12.688V12.6993V12.7107V12.7221V12.7334V12.7448V12.7561V12.7675V12.7789V12.7902V12.8016V12.8129V12.8243V12.8356V12.847V12.8584V12.8697V12.8811V12.8924V12.9038V12.9152V12.9265V12.9379V12.9492V12.9606V12.9719V12.9833V12.9947V13.006V13.0174V13.0287V13.0401V13.0514V13.0628V13.0742V13.0855V13.0969V13.1082V13.1196V13.131V13.1423V13.1537V13.165V13.1764V13.1877V13.1991V13.2105V13.2218V13.2332V13.2445V13.2559V13.2672V13.2786V13.29V13.3013V13.3127V13.324V13.3354V13.3468V13.3581V13.3695V13.3808V13.3922V13.4035V13.4149V13.4263V13.4376V13.449V13.4603V13.4717V13.483V13.4944V13.5058V13.5171V13.5285V13.5398V13.5512V13.5626V13.5739V13.5853V13.5966V13.608V13.6193V13.6307V13.6421V13.6534V13.6648V13.6761V13.6875V13.6988V13.7102V13.7216V13.7329V13.7443V13.7556V13.767V13.7784V13.7897V13.8011V13.8124V13.8238V13.8351V13.8465V13.8579V13.8692V13.8806V13.8919V13.9033V13.9146V13.926V13.9374V13.9487V13.9601V13.9714V13.9828V13.9941V14.0055V14.0169V14.0282V14.0396V14.0509V14.0623V14.0736V14.085V14.0964V14.1077V14.1191V14.1304V14.1418V14.1532V14.1645V14.1759V14.1872V14.1986V14.2099V14.2213V14.2327V14.244V14.2554V14.2667V14.2781V14.2894V14.3008V14.3122V14.3235V14.3349V14.3462V14.3576V14.3689V14.3803V14.3917V14.403V14.4144V14.4257V14.4371V14.4484V14.4598V14.4712V14.4825V14.4939V14.5052V14.5166V14.5279V14.5393V14.5507V14.562V14.5734V14.5847V14.5961V14.6075V14.6188V14.6302V14.6415V14.6529V14.6642V14.6756V14.687V14.6983V14.7097V14.721V14.7324V14.7437V14.7551V14.7665V14.7778V14.7892V14.8005V14.8119V14.8232V14.8346V14.846V14.8573V14.8687V14.88V14.8914V14.9027V14.9141V14.9255V14.9368V14.9482V14.9595V14.9709V14.9822V14.9936V15.005V15.0163V15.0277V15.039V15.0504V15.0617V15.0731V15.0845V15.0958V15.1072V15.1185V15.1299V15.1412V15.1526V15.164V15.1753V15.1867V15.198V15.2094V15.2207V15.2321V15.2435V15.2548V15.2662V15.2775V15.2889V15.3002V15.3116V15.323V15.3343V15.3457V15.357V15.3684V15.3797V15.3911V15.398C10.4096 15.4767 10.4127 15.5555 10.4233 15.6336L10.423 15.6337L10.4248 15.6431C10.4482 15.7592 10.5066 15.8597 10.5995 15.9296C10.6914 15.9987 10.8055 16.0293 10.9268 16.0283C11.0479 16.0272 11.1614 15.9948 11.2519 15.9238C11.3436 15.852 11.3996 15.7501 11.4202 15.6334Z" fill="#585757" stroke="#585757" stroke-width="0.3"/>
</g>
<defs>
<clipPath id="clip0_1080_1763">
<rect width="20" height="20" fill="white" transform="translate(0.75)"/>
</clipPath>
</defs>
</svg>
