<svg width="310" height="257" viewBox="0 0 310 257" fill="none" xmlns="http://www.w3.org/2000/svg">
<g clip-path="url(#clip0_611_2436)" filter="url(#filter0_d_611_2436)">
<path d="M238.854 210.501L179.521 210.575H122.274L95.8232 210.725L74.5193 210.534C74.4851 205.495 74.4851 200.464 74.4099 195.425C74.3347 190.842 71.9699 188.178 67.9442 188.003C66.5773 187.945 65.2719 187.87 63.9391 187.804V177.103C65.1898 177.062 66.4338 176.995 67.6845 176.995H184.395C203.887 176.995 223.382 176.976 242.88 176.937C241.54 188.117 240.198 199.305 238.854 210.501Z" fill="#689EBF"/>
<path d="M46.7224 1C47.7681 1.08302 48.8206 1.24076 49.8663 1.24076H265.708C266.753 1.24076 267.806 1.10793 268.858 1.03321C269.136 1.11358 269.42 1.15809 269.706 1.16603C276.541 0.194736 279.657 3.78105 279.152 12.257C278.967 15.4034 279.227 18.5912 279.281 21.7625C279.249 28.603 279.22 35.4436 279.193 42.2841C279.151 42.4831 279.151 42.6913 279.193 42.8902C279.193 45.746 279.24 48.6017 279.261 51.4575C279.261 53.4416 279.213 55.434 279.193 57.4181V58.7546C279.193 58.9788 279.193 59.2112 279.227 59.4437L279.268 65.9439L279.186 75.2501C279.145 87.1048 279.108 98.9596 279.076 110.814C278.697 110.834 278.32 110.722 277.992 110.489C277.663 110.256 277.397 109.914 277.224 109.503C275.456 106.587 273.213 104.143 270.635 102.322C270.635 99.4494 270.588 96.5687 270.56 93.6963C273.233 89.1885 273.294 83.8755 274.121 78.7533C274.805 74.6025 273.8 71.5309 270.547 69.4804L270.629 17.7112C270.629 13.3529 270.629 13.3529 266.719 13.3529H37.3109C31.1186 13.3529 31.1255 13.3529 31.1186 20.3595C31.1186 64.3251 31.1004 108.291 31.064 152.256C28.0743 153.395 25.2273 155.026 22.6026 157.104C22.6026 147.851 22.5798 138.592 22.5342 129.327C23.7576 127.102 22.1788 124.911 22.4727 122.686C22.5228 120.71 22.5661 118.734 22.6026 116.758V109.586C22.6026 98.3397 22.6026 87.0882 22.6026 75.8312C22.5752 72.9754 22.5524 70.1196 22.5342 67.2638L22.6641 59.9916C23.1698 58.4309 22.3497 56.92 22.5137 55.3759L22.6504 48.8093C22.6504 45.3004 22.6344 41.7861 22.6026 38.2662V13.1951C22.7939 9.04431 22.2061 4.63613 25.9721 1.89658C27.4757 1.0083 29.1502 1.39848 30.7564 1.06641C36.0328 1.19924 41.3776 1.39018 46.7224 1Z" fill="#689EBF"/>
<path d="M63.9391 187.779C65.306 187.845 66.6046 187.92 67.9442 187.978C71.9699 188.153 74.3347 190.817 74.4099 195.4C74.4851 200.439 74.4851 205.47 74.5192 210.509V213.83L74.4167 241.175C74.4167 247.194 72.1271 249.909 66.9669 249.917C47.866 249.917 28.7629 249.917 9.65752 249.917C4.50412 249.917 2.24866 247.36 2.24182 241.524C2.24182 226.365 2.24182 211.209 2.24182 196.056C2.24182 191.357 3.30804 189.68 7.19701 187.945H7.3337L12.7468 187.779C15.4301 188.061 18.1285 188.061 20.8118 187.779H23.0536C33.8753 188.078 44.697 188.078 55.5187 187.779C58.3201 188.078 61.1376 188.078 63.9391 187.779ZM31.0366 215.116C30.9643 215.973 31.0661 216.838 31.3331 217.635C31.6 218.433 32.0239 219.138 32.5676 219.691C34.7137 221.608 34.7547 224.041 34.618 226.689C34.5279 227.795 34.5463 228.909 34.6727 230.01C34.7674 231.104 35.2159 232.107 35.9194 232.8C36.623 233.493 37.5242 233.818 38.425 233.704C40.5437 233.704 41.8423 232.351 42.1089 229.943C42.1989 228.962 42.2172 227.973 42.1636 226.988C42.0884 224.248 42.1636 221.849 44.214 219.641C46.4968 217.233 46.3191 212.842 44.5625 209.878C43.6319 208.34 42.3324 207.189 40.8421 206.582C39.3518 205.976 37.7436 205.944 36.2378 206.491C33.0255 207.62 31.0366 210.658 31.0366 215.116Z" fill="#FCA501"/>
<path d="M179.945 220.429C180.335 225.228 180.881 230.026 181.039 234.841C181.121 237.332 181.866 238.046 183.943 237.921C186.149 237.852 188.356 237.941 190.553 238.187C193.198 238.419 194.489 240.436 194.756 243.168C195.023 245.899 194.216 248.448 191.626 249.469C190.619 249.829 189.572 250 188.523 249.975C163.462 249.975 138.401 249.975 113.341 249.975C109.308 249.975 107.381 248.257 107.059 244.488C106.759 241.009 108.502 238.461 111.536 238.154C113.735 237.91 115.945 237.824 118.152 237.896C119.984 237.979 120.626 237.323 120.729 235.157C120.954 230.225 121.46 225.319 121.85 220.405L179.945 220.429Z" fill="#689EBF"/>
<path d="M238.854 210.501C240.193 199.299 241.535 188.1 242.879 176.904C243.071 175.609 243.262 174.314 243.46 173.019C244.499 166.128 244.684 159.08 246.228 152.265C252.354 153.099 258.524 153.354 264.682 153.028C265.12 156.756 265.837 160.359 268.1 163.297C267.642 166.162 268.708 167.34 271.189 166.925L271.784 167.755C271.957 181.52 272.125 195.289 272.289 209.065C272.314 209.391 272.355 209.715 272.412 210.036C272.412 219.11 272.412 228.175 272.337 237.249C272.337 238.278 273.021 239.739 271.524 240.304L264.689 240.511C263.254 240.221 263.719 238.851 263.63 237.896C262.837 228.764 262.085 219.682 261.32 210.575C260.711 202.083 260.301 193.557 259.372 185.106C259.098 182.615 259.857 179.834 258.367 177.535C258.914 173.741 258.367 170.063 257.601 166.352C257.137 170.138 255.654 173.658 255.722 177.527C255.175 177.742 255.134 178.265 255.038 178.83C254.307 183.57 253.412 188.261 252.393 192.943C251.122 198.754 250.288 204.706 249.263 210.6C247.523 219.638 245.78 228.679 244.035 237.722C243.871 238.552 243.59 239.382 243.351 240.212L236.578 240.287C235.108 238.959 235.894 237.215 236.093 235.738C236.892 228.399 237.842 221.085 238.71 213.755C238.84 212.676 238.813 211.58 238.854 210.501Z" fill="#065F95"/>
<path d="M179.945 220.429H121.85C121.494 217.109 122.11 213.846 122.301 210.559H179.549C179.965 213.823 180.098 217.131 179.945 220.429Z" fill="#578EAA"/>
<path d="M279.562 171.026C278.878 172.687 279.158 174.471 279.152 176.198C279.152 183.736 279.083 191.266 279.152 198.804C279.265 201.543 278.719 204.264 277.58 206.632C276.096 208.292 274.647 209.953 272.385 210.036C272.327 209.715 272.286 209.391 272.262 209.065C272.094 195.295 271.925 181.525 271.756 167.755C274.18 169.393 276.822 170.5 279.562 171.026Z" fill="#689EBF"/>
<path d="M249.236 210.592C250.261 204.698 251.095 198.754 252.366 192.934C253.385 188.261 254.28 183.57 255.011 178.822C255.1 178.257 255.141 177.734 255.695 177.518H258.34C259.83 179.818 259.071 182.591 259.344 185.089C260.274 193.54 260.711 202.066 261.292 210.559L249.236 210.592Z" fill="#689EBF"/>
<path d="M236.578 240.279L243.351 240.204C243.515 250.066 243.898 248.655 236.099 249.527C233.823 249.784 231.527 249.834 229.265 249.875C228.562 249.938 227.86 249.741 227.25 249.312C226.641 248.883 226.152 248.24 225.847 247.468C224.644 244.546 225.642 242.744 228.451 243.052C231.465 243.392 234.295 242.91 236.578 240.279Z" fill="#051B28"/>
<path d="M264.669 240.544L271.503 240.337C271.565 242.08 271.606 243.832 271.702 245.575C271.797 247.319 271.449 248.896 269.808 249.502C268.874 249.943 267.866 250.102 266.87 249.968C265.874 249.834 264.919 249.409 264.088 248.73C262.721 247.568 263.062 245.833 263.561 244.214C263.958 242.96 264.306 241.732 264.669 240.544Z" fill="#051B28"/>
<path d="M7.19702 187.688C7.22067 187.694 7.2431 187.705 7.26293 187.722C7.28277 187.739 7.29959 187.76 7.31238 187.785C7.32517 187.81 7.33366 187.838 7.33733 187.866C7.341 187.895 7.33977 187.925 7.33371 187.953H7.19702V187.688Z" fill="#9CDBD6"/>
<path d="M246.229 152.281C244.684 159.08 244.499 166.128 243.46 173.035C243.262 174.33 243.071 175.625 242.88 176.92C223.387 176.92 203.892 176.94 184.395 176.979H67.705C66.4543 176.979 65.2103 177.045 63.9596 177.087C62.8797 170.445 60.8088 164.294 56.332 159.553C49.0667 151.858 40.5438 149.907 31.0435 152.298C31.0435 108.332 31.0617 64.3666 31.0981 20.401C31.0981 13.3944 31.0981 13.3944 37.2904 13.3944H266.74C270.649 13.3944 270.649 13.3944 270.649 17.7528L270.567 69.5302C269.364 69.1898 268.141 68.5008 266.958 68.5755C262.174 68.8827 257.444 69.3559 252.694 69.8955C250.774 70.1113 250.603 71.9792 250.692 73.6312C250.754 75.2483 251.134 76.8238 251.8 78.2261C252.465 79.6285 253.398 80.8169 254.519 81.6921C254.717 84.6226 254.772 87.5697 255.168 90.4587C255.286 91.5688 255.628 92.6265 256.163 93.5375C256.698 94.4485 257.411 95.1847 258.237 95.6804C259.898 96.7181 259.666 98.8351 257.916 99.7731C256.809 100.363 255.49 100.412 254.553 101.433C251.136 103.185 250.131 107.079 248.573 110.482C244.8 106.426 241.025 102.366 237.248 98.3038C234.514 95.365 231.835 92.3764 229.08 89.4708C228.458 88.7297 227.638 88.2844 226.769 88.2158C225.9 88.1473 225.039 88.46 224.344 89.0972C222.881 90.3093 222.293 92.1024 223.202 94.0118C223.886 95.4563 223.305 96.1785 222.519 97.0668C220.837 99.026 219.204 101.035 217.543 103.019C217.16 103.419 216.899 103.965 216.802 104.567C216.706 105.17 216.779 105.794 217.01 106.34C217.352 107.17 218.22 108 218.842 107.568C220.892 106.215 222.259 108.116 224.002 108.565C223.359 110.076 221.562 110.964 222.109 113.089C222.273 113.72 228.048 118.07 228.397 117.721C230.078 115.953 232.689 116.792 234.268 114.857C234.397 114.883 234.527 114.897 234.657 114.899C235.107 121.142 236.544 127.222 238.888 132.805C240.829 137.438 242.893 137.786 246.147 134.366C246.666 133.818 246.994 132.83 248.156 133.138C247.801 139.58 247.131 145.905 246.229 152.281ZM154.643 79.3843C158.004 78.4413 161.14 76.5628 163.802 73.8969C165.633 73.8969 166.112 72.0788 166.836 70.7755C171.333 62.6813 171.491 54.3714 166.973 46.3271C162.64 38.6065 156.037 35.4104 148.205 36.4232C137.399 37.8096 129.628 50.0213 131.678 62.3659C132.56 67.5959 134.275 72.7097 139.087 75.2251C141.506 77.2139 144.216 78.6227 147.07 79.376C147.289 80.314 147.61 80.7955 148.28 79.7412L152.866 79.8243C153.7 80.862 154.288 80.6959 154.643 79.3843ZM150.542 124.761C160.049 124.761 169.556 124.761 179.063 124.761C181.114 124.761 182.823 124.255 184.005 122.146C185.187 120.038 185.516 118.045 184.422 115.97C183.861 114.769 183.039 113.779 182.045 113.109C181.052 112.438 179.926 112.113 178.79 112.168C167.362 112.242 155.935 112.168 144.507 112.168C137.208 112.168 129.908 112.118 122.636 112.168C119.007 112.168 116.485 115.123 116.573 118.9C116.662 122.32 119.123 124.711 122.622 124.711C131.927 124.756 141.235 124.772 150.549 124.761H150.542ZM151.157 89.7946C141.835 89.7946 132.519 89.7946 123.203 89.7946C120.052 89.7946 117.476 91.8368 116.731 94.7756C115.986 97.7143 117.216 99.9143 119.15 101.624C120.579 102.886 122.321 102.986 124.078 102.986C141.944 102.986 159.81 102.986 177.676 102.986C178.252 103.04 178.83 103.04 179.405 102.986C182.207 102.438 184.19 100.661 184.928 97.4902C185.557 94.8171 184.313 92.8164 182.583 91.2474C181.257 90.0436 179.624 89.8444 177.956 89.8527C169.03 89.8029 160.097 89.7863 151.164 89.7946H151.157ZM150.945 135.171C147.494 135.171 144.042 135.113 140.598 135.171C136.64 135.263 134.248 138.036 134.296 142.327C134.337 146.478 136.702 149.201 140.516 149.234C147.323 149.301 154.128 149.301 160.931 149.234C164.834 149.234 167.356 146.271 167.301 142.087C167.246 138.052 164.772 135.263 161.013 135.18C157.65 135.113 154.308 135.171 150.952 135.171H150.945Z" fill="#FDFEFE"/>
<path d="M31.064 152.289C40.5437 149.899 49.0667 151.849 56.3525 159.545C60.8293 164.285 62.9002 170.404 63.9801 177.078V187.779C61.1787 188.078 58.3611 188.078 55.5597 187.779C55.5141 184.143 55.4685 180.501 55.423 176.854C53.8988 164.003 41.3229 156.473 31.105 162.301C29.2316 163.069 27.5071 164.294 26.0369 165.9C24.5667 167.506 23.3818 169.459 22.5547 171.641C21.9326 172.575 21.5226 173.692 21.3654 174.878C20.4086 179.129 20.9485 183.47 20.8118 187.771C18.1285 188.053 15.4301 188.053 12.7468 187.771C12.7947 183.935 12.5828 180.059 12.9519 176.265C13.7174 168.345 17.1894 162.052 22.6025 157.121C25.2281 155.049 28.075 153.423 31.064 152.289Z" fill="#096095"/>
<path d="M248.552 110.507C250.111 107.103 251.081 103.21 254.533 101.458C259.577 105.219 263.965 105.261 268.243 101.575L270.635 102.322C273.213 104.143 275.456 106.587 277.224 109.503C277.397 109.914 277.663 110.256 277.992 110.489C278.32 110.722 278.697 110.834 279.076 110.814C279.849 114.89 282.275 117.821 284.407 120.967C284.463 121.175 284.583 121.348 284.742 121.449C285.829 124.155 287.811 126.305 288.481 129.269C288.105 131.303 288.809 133.212 288.98 135.18C285.597 134.184 282.248 132.955 278.68 133.436C279.363 129.377 277.573 126.612 275.01 124.263C274.531 123.831 274.23 122.835 273.41 123.308C272.85 123.632 272.823 124.396 272.864 125.052C273.075 128.746 272.522 132.39 272.283 136.06C271.934 135.949 271.602 135.773 271.298 135.537C263.721 127.202 256.139 118.859 248.552 110.507Z" fill="#8CBEDC"/>
<path d="M254.519 81.6755C253.398 80.8003 252.465 79.6119 251.799 78.2096C251.134 76.8072 250.754 75.2317 250.692 73.6146C250.603 71.9543 250.774 70.0947 252.694 69.8789C257.444 69.3393 262.194 68.8661 266.958 68.5589C268.141 68.4842 269.364 69.1732 270.567 69.5136C273.82 71.5641 274.832 74.6191 274.142 78.7866C273.294 83.8755 273.253 89.1885 270.581 93.7295C269.145 94.5597 267.71 95.3899 266.008 95.1657C266.152 92.6752 267.177 91.0149 269.18 89.861C270.451 89.1055 271.497 87.1131 270.417 85.7517C269.337 84.3902 269.207 87.1297 268.243 87.3041C268.061 87.3015 267.879 87.2708 267.703 87.2127C267.792 86.6565 267.888 86.1335 267.963 85.6022C268.599 81.1525 267.238 79.3677 263.274 79.3179C261.945 79.3964 260.613 79.2313 259.324 78.8281C256.679 77.7323 255.12 78.5292 254.519 81.6755Z" fill="#051B28"/>
<path d="M266.008 95.1325C267.71 95.3733 269.145 94.5348 270.581 93.6963C270.581 96.5687 270.629 99.4494 270.656 102.322L268.264 101.575C266.336 101.01 265.605 99.6237 265.974 97.3823C266.047 96.6356 266.059 95.8819 266.008 95.1325Z" fill="#FDFEFE"/>
<path d="M55.382 176.854C55.423 180.501 55.4685 184.143 55.5187 187.779C44.7015 188.095 33.8799 188.095 23.0536 187.779C23.0536 186.119 23.1493 184.508 23.0536 182.881C22.8212 179.145 23.6688 175.335 22.5615 171.649C23.3825 169.469 24.5604 167.516 26.0234 165.907C27.4863 164.299 29.2037 163.069 31.0708 162.293C31.0708 166.352 31.1733 170.42 31.0708 174.488C31.0708 176.29 31.4877 177.02 33.1691 176.979C40.5847 176.879 47.9799 176.887 55.382 176.854Z" fill="#689EBF"/>
<path d="M31.0366 215.116C31.0366 210.675 33.0255 207.645 36.2925 206.458C37.7969 205.909 39.4042 205.938 40.8944 206.542C42.3845 207.145 43.6848 208.293 44.6173 209.828C46.3738 212.792 46.5515 217.184 44.2687 219.591C42.1704 221.799 42.1157 224.198 42.2183 226.938C42.2719 227.923 42.2536 228.912 42.1636 229.893C41.8697 232.301 40.5984 233.621 38.4797 233.654C37.5789 233.768 36.6777 233.443 35.9741 232.75C35.2706 232.057 34.8221 231.054 34.7274 229.96C34.601 228.859 34.5826 227.745 34.6727 226.639C34.7821 223.991 34.741 221.559 32.6223 219.641C32.0747 219.1 31.644 218.406 31.3677 217.617C31.0914 216.829 30.9777 215.97 31.0366 215.116Z" fill="#065F95"/>
<path d="M248.552 110.507C256.134 118.853 263.716 127.196 271.298 135.537C271.602 135.773 271.934 135.95 272.283 136.06L278.68 133.436C282.248 132.955 285.597 134.184 288.98 135.18C291.57 137.521 294.058 139.978 295.815 143.232C299.28 154.332 296.983 163.364 289.458 168.436C286.376 170.52 283.02 171.093 279.521 171.026C276.807 170.49 274.191 169.383 271.791 167.755L271.196 166.925C272.693 165.885 274.009 164.5 275.071 162.849C276.336 163.638 277.58 164.51 279.097 164.51C280.04 165.199 281.052 164.999 282.063 164.833C283.28 164.902 284.485 164.523 285.522 163.746C289.916 161.961 291.994 158.051 292.322 153.078C292.636 148.363 291.14 144.32 287.326 141.821V141.896L286.683 141.323C286.628 141.234 286.558 141.159 286.478 141.103C286.398 141.048 286.31 141.012 286.219 140.999C284.895 140.072 283.409 139.538 281.883 139.44C280.357 139.342 278.833 139.683 277.436 140.435C272.72 142.303 270.089 146.653 270.123 152.53C269.884 154.606 270.731 156.399 271.285 158.267C269.439 159.304 268.783 161.322 268.093 163.322C265.844 160.384 265.127 156.781 264.676 153.053C264.643 149.972 265.224 146.927 266.371 144.179C266.904 143.017 266.719 142.211 265.899 141.331C259.16 134.076 252.437 126.803 245.73 119.515L239.893 112.931C239.831 111.271 241.499 109.303 239.442 107.95C238.781 107.495 238.029 107.272 237.27 107.306C236.511 107.34 235.774 107.629 235.143 108.141C233.407 109.544 233.27 111.462 234.104 113.62C234.211 114.031 234.267 114.459 234.268 114.891C232.689 116.825 230.078 115.986 228.397 117.755C228.048 118.128 222.245 113.753 222.109 113.122C221.562 110.997 223.36 110.109 224.002 108.598C222.28 108.15 220.878 106.248 218.842 107.602C218.22 108.008 217.352 107.236 217.01 106.373C216.779 105.827 216.706 105.203 216.802 104.6C216.899 103.998 217.16 103.453 217.543 103.052C219.204 101.068 220.837 99.0592 222.519 97.1C223.284 96.2117 223.886 95.4895 223.202 94.045C222.266 92.1356 222.881 90.3425 224.344 89.1304C225.039 88.4932 225.9 88.1805 226.769 88.249C227.638 88.3176 228.458 88.7629 229.08 89.504C231.814 92.4096 234.548 95.3982 237.248 98.337C241.016 102.377 244.784 106.434 248.552 110.507Z" fill="#FBA504"/>
<path d="M246.059 119.961C252.779 127.233 259.503 134.505 266.228 141.777C267.048 142.657 267.233 143.438 266.7 144.625C265.553 147.374 264.972 150.418 265.005 153.499C258.846 153.825 252.676 153.57 246.551 152.736C247.453 146.393 248.123 140.034 248.499 133.642C247.337 133.335 247.009 134.322 246.489 134.87C243.236 138.299 241.172 137.942 239.231 133.31C236.886 127.726 235.45 121.647 235 115.403C236.661 115.536 238.062 114.573 239.545 114L243.12 126.378L243.803 126.228L246.059 119.961Z" fill="#8CBEDC"/>
<path d="M275.064 162.874C274.002 164.525 272.686 165.91 271.189 166.95C268.708 167.357 267.642 166.178 268.1 163.314C268.783 161.313 269.467 159.296 271.291 158.258L271.708 158.101C272.372 158.19 273.015 158.442 273.596 158.842C274.178 159.241 274.686 159.78 275.092 160.425C275.085 161.239 275.078 162.061 275.064 162.874Z" fill="#FADAA6"/>
<path d="M258.347 177.535H255.702C255.633 173.666 257.116 170.146 257.581 166.361C258.374 170.047 258.893 173.741 258.347 177.535Z" fill="#D0E5F1"/>
<path d="M15.6242 51.5239L15.385 51.2499C15.4329 51.2499 15.4944 51.2499 15.5217 51.2997C15.5624 51.3697 15.5968 51.4449 15.6242 51.5239Z" fill="#CFE4F1"/>
<path d="M150.549 124.761C141.235 124.761 131.92 124.761 122.602 124.761C119.102 124.761 116.642 122.395 116.553 118.95C116.45 115.173 118.986 112.251 122.615 112.217C129.915 112.151 137.214 112.217 144.487 112.217C155.914 112.217 167.342 112.259 178.77 112.217C179.905 112.162 181.031 112.488 182.025 113.159C183.018 113.829 183.84 114.819 184.401 116.02C185.495 118.095 185.085 120.17 183.985 122.196C182.884 124.222 181.1 124.819 179.043 124.811C169.563 124.736 160.056 124.761 150.549 124.761ZM148.239 120.403C148.611 120.44 148.98 120.298 149.266 120.007C149.552 119.717 149.733 119.301 149.77 118.85C149.788 118.607 149.767 118.361 149.707 118.127C149.647 117.894 149.55 117.677 149.421 117.489C149.293 117.3 149.135 117.145 148.956 117.031C148.778 116.917 148.583 116.847 148.382 116.825C148.182 116.802 147.979 116.828 147.787 116.901C147.595 116.973 147.416 117.091 147.261 117.248C147.106 117.404 146.978 117.596 146.885 117.813C146.791 118.029 146.733 118.266 146.715 118.51C146.646 119.573 147.227 120.278 148.239 120.403ZM145.3 118.693C145.288 118.249 145.142 117.826 144.89 117.505C144.638 117.183 144.297 116.986 143.933 116.949C143.728 116.907 143.518 116.919 143.317 116.986C143.116 117.053 142.93 117.173 142.772 117.337C142.613 117.501 142.487 117.705 142.4 117.935C142.314 118.165 142.27 118.415 142.272 118.668C142.255 118.893 142.278 119.121 142.34 119.334C142.402 119.548 142.502 119.742 142.632 119.905C142.761 120.067 142.919 120.194 143.093 120.275C143.267 120.357 143.453 120.392 143.639 120.378C143.839 120.401 144.041 120.375 144.233 120.303C144.426 120.23 144.604 120.112 144.758 119.955C144.913 119.799 145.04 119.607 145.133 119.39C145.226 119.173 145.283 118.936 145.3 118.693ZM127.167 118.767C127.175 118.525 127.141 118.283 127.068 118.057C126.995 117.831 126.883 117.626 126.741 117.455C126.599 117.284 126.43 117.15 126.243 117.063C126.056 116.976 125.857 116.938 125.657 116.949C125.473 116.928 125.288 116.951 125.113 117.019C124.937 117.086 124.774 117.196 124.634 117.342C124.495 117.488 124.381 117.666 124.299 117.867C124.217 118.068 124.17 118.287 124.16 118.51C124.078 119.631 124.686 120.336 125.67 120.386C125.858 120.408 126.047 120.382 126.226 120.311C126.404 120.24 126.569 120.125 126.71 119.973C126.85 119.821 126.963 119.636 127.042 119.428C127.121 119.221 127.163 118.996 127.167 118.767ZM137.782 118.767C137.773 118.996 137.806 119.224 137.878 119.435C137.949 119.647 138.059 119.836 138.198 119.991C138.336 120.145 138.502 120.261 138.681 120.329C138.861 120.397 139.051 120.417 139.237 120.386C139.426 120.406 139.617 120.377 139.796 120.303C139.976 120.228 140.141 120.109 140.28 119.953C140.42 119.797 140.531 119.607 140.607 119.396C140.682 119.184 140.721 118.956 140.721 118.726C140.741 118.468 140.711 118.209 140.634 117.968C140.556 117.727 140.434 117.511 140.276 117.338C140.118 117.164 139.929 117.038 139.724 116.969C139.518 116.9 139.303 116.891 139.094 116.941C138.905 116.941 138.718 116.991 138.546 117.086C138.374 117.181 138.221 117.32 138.097 117.493C137.972 117.665 137.88 117.869 137.826 118.089C137.771 118.308 137.756 118.54 137.782 118.767ZM136.189 118.576C136.19 118.344 136.151 118.115 136.074 117.902C135.998 117.69 135.885 117.499 135.744 117.343C135.603 117.186 135.437 117.068 135.255 116.994C135.074 116.921 134.882 116.894 134.692 116.916C134.481 116.896 134.269 116.935 134.073 117.031C133.876 117.127 133.701 117.277 133.561 117.469C133.42 117.662 133.318 117.891 133.263 118.139C133.208 118.388 133.201 118.648 133.243 118.9C133.256 119.129 133.31 119.352 133.401 119.553C133.492 119.755 133.618 119.929 133.77 120.065C133.922 120.201 134.097 120.295 134.282 120.341C134.468 120.386 134.659 120.382 134.843 120.328C135.027 120.325 135.209 120.277 135.377 120.186C135.546 120.096 135.698 119.965 135.823 119.801C135.949 119.637 136.046 119.445 136.109 119.234C136.172 119.024 136.199 118.8 136.189 118.576ZM131.63 118.576C131.631 118.347 131.592 118.121 131.517 117.911C131.442 117.701 131.332 117.512 131.194 117.356C131.056 117.2 130.893 117.081 130.716 117.005C130.538 116.929 130.349 116.899 130.161 116.916C129.966 116.91 129.771 116.953 129.59 117.043C129.409 117.133 129.246 117.267 129.11 117.438C128.974 117.608 128.868 117.811 128.8 118.033C128.731 118.256 128.702 118.493 128.713 118.73C128.723 118.967 128.775 119.199 128.863 119.41C128.951 119.622 129.075 119.809 129.226 119.96C129.376 120.111 129.551 120.223 129.739 120.287C129.927 120.352 130.124 120.369 130.318 120.336C130.503 120.343 130.686 120.301 130.856 120.213C131.026 120.126 131.178 119.995 131.303 119.829C131.427 119.664 131.521 119.468 131.577 119.255C131.634 119.041 131.652 118.816 131.63 118.593V118.576ZM161.901 120.378C162.769 120.179 163.35 119.672 163.268 118.601C163.276 118.342 163.233 118.084 163.143 117.848C163.054 117.612 162.92 117.405 162.752 117.243C162.585 117.082 162.388 116.97 162.179 116.918C161.969 116.865 161.753 116.873 161.546 116.941C161.359 116.956 161.177 117.019 161.012 117.125C160.847 117.232 160.702 117.38 160.588 117.56C160.474 117.74 160.392 117.947 160.349 118.168C160.305 118.389 160.301 118.619 160.336 118.842C160.446 119.946 161.068 120.37 161.901 120.394V120.378ZM157.404 120.378C157.779 120.361 158.134 120.164 158.39 119.831C158.645 119.497 158.781 119.053 158.768 118.597C158.754 118.141 158.592 117.711 158.317 117.4C158.042 117.09 157.677 116.924 157.302 116.941C157.09 116.911 156.876 116.942 156.677 117.03C156.477 117.119 156.297 117.263 156.151 117.45C156.005 117.638 155.897 117.865 155.836 118.112C155.774 118.36 155.762 118.621 155.798 118.875C155.887 119.921 156.55 120.328 157.404 120.394V120.378ZM152.579 116.933C151.895 117.223 151.212 117.696 151.294 118.726C151.307 118.951 151.358 119.171 151.444 119.371C151.53 119.572 151.648 119.749 151.792 119.892C151.936 120.035 152.102 120.141 152.281 120.203C152.46 120.265 152.647 120.282 152.832 120.253C153.018 120.278 153.205 120.251 153.381 120.172C153.556 120.094 153.715 119.968 153.843 119.803C153.972 119.638 154.067 119.439 154.121 119.222C154.176 119.005 154.188 118.775 154.158 118.551C154.103 117.547 153.549 117.041 152.579 116.949V116.933Z" fill="#CFE4F1"/>
<path d="M139.094 75.2251C134.31 72.7346 132.567 67.5959 131.685 62.3659C129.635 50.0213 137.399 37.8096 148.177 36.4232C156.03 35.4104 162.612 38.6065 166.946 46.327C171.463 54.3714 171.306 62.6813 166.809 70.7754C166.084 72.0788 165.606 73.9052 163.774 73.8969C164.048 70.6509 162.571 68.7083 160.07 67.6623C158.647 66.9968 157.169 66.5235 155.661 66.251C153.611 65.9771 153.666 64.2752 154.54 63.4036C156.837 61.1289 157.274 57.6837 159.065 55.1434C159.885 53.9812 160.986 52.1133 159.749 51.1254C158.511 50.1375 158.744 49.0002 158.744 47.8463C158.744 44.6584 157.76 42.2177 154.889 41.3544C151.472 40.325 147.924 38.9469 145.047 42.8155C144.645 43.4166 144.35 44.1117 144.179 44.8577C143.557 47.1738 144.924 50.0296 142.682 51.9722C142.498 52.1299 142.73 53.3835 143.072 53.7736C145.464 56.5215 145.3 60.9878 148.246 63.4285C149.435 64.4164 149.319 65.919 147.398 66.2428C146.715 66.3507 146.086 66.525 145.423 66.6412C141.247 67.3884 139.06 70.3604 139.094 75.2251Z" fill="#CFE4F1"/>
<path d="M151.164 89.7863C160.097 89.7863 169.03 89.7863 177.963 89.7863C179.631 89.7863 181.264 89.9772 182.59 91.1809C184.319 92.75 185.563 94.7507 184.934 97.4238C184.189 100.595 182.201 102.405 179.412 102.919C178.836 102.974 178.258 102.974 177.683 102.919C159.817 102.919 141.951 102.919 124.085 102.919C122.328 102.919 120.585 102.82 119.157 101.558C117.223 99.8479 115.979 97.6894 116.737 94.7091C117.496 91.7288 120.059 89.778 123.21 89.7281C132.526 89.7614 141.841 89.7946 151.164 89.7863ZM150.815 98.1959H173.849C174.532 98.1959 175.215 98.2374 175.865 98.1959C176.801 98.0962 177.587 97.6396 177.621 96.4276C177.655 95.2156 176.938 94.676 175.974 94.5514C175.303 94.496 174.63 94.4821 173.958 94.5099H127.536C126.866 94.478 126.196 94.4919 125.527 94.5514C124.57 94.6843 123.9 95.2405 123.928 96.4691C123.928 97.5649 124.611 98.0215 125.418 98.1295C126.183 98.2169 126.953 98.2418 127.721 98.2042C135.408 98.2097 143.106 98.2069 150.815 98.1959Z" fill="#D0E5F1"/>
<path d="M139.094 75.2251C139.06 70.3438 141.233 67.3884 145.396 66.6412C146.079 66.525 146.708 66.3507 147.371 66.2428C149.291 65.9273 149.421 64.4164 148.218 63.4285C145.273 60.9878 145.437 56.5215 143.044 53.7736C142.703 53.3835 142.47 52.1133 142.655 51.9722C144.897 50.0296 143.53 47.1738 144.152 44.8577C144.322 44.1118 144.618 43.4166 145.02 42.8155C147.897 38.9469 151.431 40.325 154.862 41.3544C157.732 42.1845 158.696 44.675 158.716 47.8463C158.716 49.0002 158.388 50.0711 159.721 51.1254C161.054 52.1797 159.885 53.9812 159.038 55.1434C157.24 57.6838 156.81 61.1289 154.513 63.4036C153.638 64.2753 153.577 65.9771 155.634 66.251C157.142 66.5235 158.62 66.9968 160.042 67.6623C162.544 68.7083 164.02 70.6509 163.747 73.8969C161.093 76.5583 157.967 78.4365 154.616 79.3843C154.312 79.2728 153.991 79.257 153.681 79.3384C153.371 79.4197 153.084 79.5955 152.845 79.8492L148.259 79.7661C148.113 79.5608 147.919 79.4155 147.702 79.3501C147.486 79.2847 147.258 79.3024 147.05 79.4009C144.203 78.6361 141.503 77.2188 139.094 75.2251Z" fill="#096095"/>
<path d="M150.952 135.171C154.308 135.171 157.664 135.113 161.02 135.171C164.779 135.254 167.253 138.044 167.308 142.078C167.362 146.229 164.84 149.193 160.938 149.226C154.13 149.304 147.325 149.304 140.522 149.226C136.709 149.226 134.371 146.47 134.303 142.319C134.255 138.027 136.647 135.254 140.604 135.163C144.049 135.113 147.501 135.171 150.952 135.171Z" fill="#689EBF"/>
<path d="M266.008 95.1325C266.059 95.882 266.047 96.6356 265.974 97.3823C265.605 99.6237 266.336 101.01 268.264 101.575C263.985 105.261 259.597 105.219 254.553 101.458C255.49 100.396 256.809 100.346 257.916 99.7981C259.666 98.86 259.898 96.7431 258.237 95.7053C257.411 95.2096 256.698 94.4734 256.163 93.5624C255.628 92.6514 255.286 91.5938 255.168 90.4836C254.772 87.5946 254.717 84.6724 254.519 81.717C255.121 78.5707 256.679 77.7738 259.303 78.8364C260.592 79.2396 261.924 79.4047 263.254 79.3262C267.218 79.376 268.578 81.1608 267.942 85.6105C267.867 86.1418 267.772 86.6648 267.683 87.221C267.859 87.2792 268.04 87.3099 268.223 87.3124C269.186 87.138 269.364 84.4649 270.396 85.7599C271.428 87.055 270.43 89.0806 269.159 89.8693C267.177 91.0066 266.152 92.642 266.008 95.1325Z" fill="#FADAA6"/>
<path d="M239.223 113.529C237.74 114.127 236.339 115.065 234.678 114.932C234.547 114.931 234.417 114.917 234.288 114.891C234.287 114.459 234.232 114.031 234.124 113.62C233.29 111.487 233.441 109.544 235.163 108.141C235.795 107.629 236.531 107.34 237.29 107.306C238.049 107.272 238.801 107.495 239.462 107.95C241.513 109.287 239.852 111.271 239.913 112.931L239.223 113.529Z" fill="#FADAA6"/>
<path d="M152.866 79.8492C153.104 79.5955 153.392 79.4197 153.701 79.3384C154.011 79.257 154.333 79.2728 154.636 79.3843C154.287 80.6959 153.7 80.862 152.866 79.8492Z" fill="#CFE4F1"/>
<path d="M147.077 79.4009C147.285 79.3024 147.513 79.2847 147.73 79.3501C147.946 79.4155 148.141 79.5609 148.287 79.7662C147.617 80.8205 147.296 80.3224 147.077 79.4009Z" fill="#CFE4F1"/>
<path d="M55.3819 176.854C47.9799 176.854 40.5847 176.854 33.1895 176.995C31.5082 176.995 31.0639 176.298 31.0913 174.505C31.1664 170.437 31.0913 166.369 31.0913 162.31C41.2819 156.473 53.8578 164.003 55.3819 176.854Z" fill="#FDFEFE"/>
<path d="M278.7 133.453L272.303 136.076C272.542 132.407 273.096 128.763 272.884 125.068C272.843 124.413 272.884 123.649 273.431 123.325C274.251 122.852 274.552 123.848 275.03 124.28C277.593 126.612 279.384 129.377 278.7 133.453Z" fill="#689EBF"/>
<path d="M275.092 160.425C274.686 159.78 274.178 159.241 273.596 158.842C273.015 158.442 272.372 158.19 271.708 158.101C271.763 157.569 271.825 157.03 271.879 156.49C274.757 151.6 276.021 145.972 277.443 140.426C278.84 139.675 280.364 139.334 281.89 139.432C283.416 139.53 284.901 140.064 286.225 140.991L283.259 147.209C282.856 148.612 281.612 149.525 281.55 151.119C280.827 151.55 280.219 152.221 279.796 153.054C279.373 153.886 279.152 154.847 279.158 155.826C276.91 156.332 276.711 159.188 275.092 160.425Z" fill="#8CBEDC"/>
<path d="M277.443 140.426C276.021 145.972 274.757 151.6 271.879 156.49C271.086 155.286 273.028 152.505 270.13 152.522C270.095 146.644 272.727 142.294 277.443 140.426Z" fill="#689EBF"/>
<path d="M239.223 113.529L239.906 112.915L245.743 119.498L243.447 125.757L242.763 125.907L239.223 113.529Z" fill="#FDFEFE"/>
<path d="M279.158 155.867C279.158 156.515 279.193 157.154 279.213 157.793L279.09 164.543C277.573 164.543 276.356 163.713 275.064 162.882C275.064 162.052 275.064 161.222 275.064 160.433C276.712 159.188 276.91 156.332 279.158 155.867Z" fill="#689EBF"/>
<path d="M270.13 152.547C273.028 152.547 271.086 155.311 271.879 156.515C271.825 157.055 271.763 157.594 271.708 158.126L271.291 158.283C270.738 156.39 269.89 154.597 270.13 152.547Z" fill="#096095"/>
<path d="M148.232 120.403C147.227 120.278 146.646 119.573 146.735 118.485C146.807 118.029 147.017 117.622 147.323 117.345C147.629 117.067 148.01 116.938 148.39 116.984C148.77 117.03 149.123 117.247 149.378 117.592C149.633 117.937 149.773 118.386 149.77 118.85C149.732 119.302 149.549 119.718 149.262 120.008C148.974 120.298 148.605 120.44 148.232 120.403Z" fill="#1D6EA0"/>
<path d="M145.3 118.693C145.28 118.939 145.22 119.179 145.123 119.397C145.026 119.615 144.894 119.807 144.735 119.962C144.575 120.117 144.392 120.231 144.196 120.298C143.999 120.366 143.794 120.384 143.591 120.353C143.405 120.367 143.219 120.332 143.045 120.25C142.871 120.169 142.714 120.042 142.584 119.88C142.454 119.717 142.354 119.523 142.292 119.309C142.23 119.096 142.207 118.868 142.224 118.643C142.222 118.39 142.266 118.14 142.352 117.91C142.439 117.68 142.566 117.476 142.724 117.312C142.882 117.148 143.068 117.028 143.269 116.961C143.47 116.895 143.68 116.882 143.885 116.924C144.261 116.947 144.616 117.143 144.879 117.471C145.141 117.799 145.292 118.235 145.3 118.693Z" fill="#1D6EA0"/>
<path d="M127.167 118.767C127.163 118.997 127.119 119.224 127.038 119.432C126.958 119.641 126.843 119.826 126.7 119.978C126.557 120.129 126.39 120.243 126.21 120.312C126.029 120.381 125.838 120.403 125.65 120.378C124.666 120.328 124.057 119.622 124.139 118.502C124.15 118.277 124.199 118.057 124.282 117.855C124.365 117.654 124.481 117.475 124.623 117.329C124.765 117.184 124.93 117.076 125.108 117.01C125.286 116.945 125.472 116.924 125.657 116.949C125.857 116.938 126.056 116.976 126.243 117.064C126.429 117.151 126.599 117.284 126.741 117.455C126.883 117.626 126.995 117.831 127.068 118.057C127.141 118.283 127.175 118.525 127.167 118.767Z" fill="#1D6EA0"/>
<path d="M137.782 118.767C137.759 118.542 137.777 118.313 137.833 118.096C137.888 117.879 137.981 117.679 138.105 117.509C138.229 117.339 138.381 117.203 138.552 117.109C138.722 117.015 138.907 116.967 139.094 116.966C139.303 116.916 139.518 116.925 139.724 116.994C139.929 117.063 140.118 117.189 140.276 117.362C140.434 117.536 140.556 117.752 140.634 117.993C140.711 118.234 140.741 118.493 140.721 118.751C140.721 118.981 140.682 119.209 140.607 119.42C140.531 119.632 140.419 119.821 140.28 119.978C140.14 120.134 139.976 120.253 139.796 120.328C139.617 120.402 139.426 120.431 139.237 120.411C139.049 120.442 138.857 120.422 138.676 120.352C138.495 120.283 138.328 120.165 138.189 120.008C138.05 119.85 137.941 119.658 137.871 119.443C137.8 119.229 137.77 118.998 137.782 118.767Z" fill="#1D6EA0"/>
<path d="M136.189 118.576C136.203 118.805 136.178 119.034 136.116 119.25C136.054 119.466 135.955 119.664 135.827 119.832C135.698 119.999 135.543 120.133 135.37 120.224C135.197 120.315 135.011 120.362 134.822 120.361C134.638 120.415 134.447 120.419 134.262 120.374C134.077 120.329 133.902 120.235 133.749 120.099C133.597 119.963 133.471 119.788 133.38 119.587C133.289 119.385 133.235 119.162 133.223 118.933C133.181 118.681 133.188 118.421 133.243 118.173C133.298 117.924 133.4 117.695 133.54 117.503C133.68 117.31 133.856 117.16 134.052 117.064C134.249 116.968 134.461 116.929 134.672 116.949C134.861 116.924 135.053 116.947 135.235 117.017C135.416 117.086 135.584 117.202 135.727 117.355C135.87 117.508 135.985 117.696 136.064 117.906C136.144 118.117 136.186 118.345 136.189 118.576Z" fill="#1D6EA0"/>
<path d="M131.63 118.593C131.656 118.818 131.641 119.047 131.587 119.265C131.532 119.482 131.439 119.683 131.314 119.852C131.189 120.021 131.035 120.155 130.863 120.244C130.691 120.334 130.505 120.377 130.318 120.37C130.124 120.402 129.927 120.385 129.739 120.32C129.551 120.256 129.376 120.144 129.226 119.993C129.075 119.843 128.951 119.655 128.863 119.443C128.775 119.232 128.723 119 128.713 118.763C128.702 118.526 128.731 118.289 128.8 118.066C128.868 117.844 128.973 117.641 129.11 117.471C129.246 117.3 129.409 117.166 129.59 117.076C129.771 116.987 129.965 116.943 130.161 116.949C130.348 116.932 130.535 116.962 130.712 117.037C130.889 117.111 131.052 117.229 131.189 117.384C131.327 117.538 131.437 117.725 131.513 117.933C131.589 118.141 131.629 118.365 131.63 118.593Z" fill="#1D6EA0"/>
<path d="M161.901 120.394C161.047 120.394 160.446 119.946 160.35 118.892C160.315 118.669 160.319 118.439 160.362 118.218C160.406 117.997 160.487 117.79 160.602 117.61C160.716 117.43 160.861 117.282 161.026 117.175C161.191 117.068 161.373 117.006 161.56 116.991C161.766 116.923 161.983 116.915 162.192 116.968C162.402 117.02 162.598 117.132 162.766 117.293C162.933 117.455 163.067 117.662 163.157 117.898C163.247 118.133 163.289 118.392 163.282 118.651C163.35 119.689 162.769 120.17 161.901 120.394Z" fill="#1D6EA0"/>
<path d="M157.397 120.394C156.55 120.328 155.887 119.921 155.798 118.892C155.761 118.637 155.774 118.376 155.836 118.129C155.897 117.881 156.005 117.655 156.151 117.467C156.297 117.279 156.477 117.135 156.677 117.047C156.876 116.959 157.09 116.928 157.302 116.958C157.488 116.937 157.677 116.966 157.854 117.041C158.031 117.116 158.193 117.236 158.329 117.393C158.464 117.55 158.571 117.741 158.642 117.952C158.712 118.163 158.744 118.39 158.737 118.618C158.771 119.672 158.334 120.253 157.397 120.394Z" fill="#1D6EA0"/>
<path d="M152.579 116.949C153.543 117.041 154.103 117.547 154.158 118.568C154.188 118.792 154.176 119.022 154.121 119.239C154.067 119.456 153.971 119.655 153.843 119.819C153.715 119.984 153.556 120.111 153.381 120.189C153.205 120.267 153.018 120.295 152.832 120.27C152.647 120.299 152.46 120.282 152.281 120.219C152.102 120.157 151.936 120.051 151.792 119.908C151.648 119.765 151.53 119.588 151.444 119.388C151.358 119.187 151.307 118.968 151.294 118.742C151.232 117.68 151.889 117.24 152.579 116.949Z" fill="#096095"/>
<path d="M150.815 98.1959C143.133 98.1959 135.446 98.1959 127.755 98.1959C126.987 98.2335 126.217 98.2086 125.452 98.1211C124.652 97.9883 123.982 97.5317 123.962 96.4608C123.962 95.2322 124.604 94.676 125.561 94.5431C126.23 94.4836 126.901 94.4697 127.571 94.5016H173.992C174.664 94.4738 175.337 94.4877 176.008 94.5431C176.958 94.6676 177.69 95.2156 177.656 96.4193C177.621 97.623 176.835 98.0796 175.899 98.1875C175.216 98.2623 174.532 98.1875 173.883 98.1875L150.815 98.1959Z" fill="#1D6EA0"/>
</g>
<defs>
<filter id="filter0_d_611_2436" x="0" y="0" width="314" height="257" filterUnits="userSpaceOnUse" color-interpolation-filters="sRGB">
<feFlood flood-opacity="0" result="BackgroundImageFix"/>
<feColorMatrix in="SourceAlpha" type="matrix" values="0 0 0 0 0 0 0 0 0 0 0 0 0 0 0 0 0 0 127 0" result="hardAlpha"/>
<feOffset dx="8" dy="3"/>
<feGaussianBlur stdDeviation="2"/>
<feComposite in2="hardAlpha" operator="out"/>
<feColorMatrix type="matrix" values="0 0 0 0 0 0 0 0 0 0 0 0 0 0 0 0 0 0 0.25 0"/>
<feBlend mode="normal" in2="BackgroundImageFix" result="effect1_dropShadow_611_2436"/>
<feBlend mode="normal" in="SourceGraphic" in2="effect1_dropShadow_611_2436" result="shape"/>
</filter>
<clipPath id="clip0_611_2436">
<rect width="302" height="249" fill="white" transform="translate(0 1)"/>
</clipPath>
</defs>
</svg>
