<svg width="222" height="180" viewBox="0 0 222 180" fill="none" xmlns="http://www.w3.org/2000/svg">
<path d="M209.859 0.106151C212.043 0.678279 214.18 1.37592 216.257 2.19447C220.686 4.20248 222.368 7.50365 221.934 11.8329C221.518 15.9293 218.837 18.3469 214.769 19.865C211.884 20.9573 208.833 21.0216 205.736 21.0216C159.238 21.0216 112.744 21.0216 66.2519 21.0216C51.4594 21.0216 44.4515 26.3709 42.2141 39.1258C39.9213 52.2502 50.2483 61.1497 60.4921 62.7159C62.2962 62.9914 64.1243 63.1311 65.9561 63.1336C80.0552 63.1818 94.1266 63.5111 108.17 64.74C121.631 65.9127 131.413 71.9688 137.857 82.0089C150.236 101.286 145.984 124.699 127.687 139.976C120.189 146.233 110.888 148.811 100.876 148.892C71.8731 149.092 42.8705 148.948 13.868 148.972C11.0981 149.047 8.35498 148.482 5.91862 147.334C3.48225 146.187 1.43989 144.499 0 142.442V136.016C3.53171 131.028 8.96796 129.591 15.3195 129.591C41.6871 129.591 68.0178 129.591 94.4132 129.486C114.697 129.366 127.789 110.458 118.627 94.9485C113.449 86.1855 104.481 83.6474 94.2005 83.4064C83.9197 83.1655 73.3523 83.535 62.9421 83.3181C46.883 82.9727 34.5405 76.5471 25.739 65.0532C17.6955 54.5634 17.7233 42.8045 20.4137 31.158C24.2042 14.7325 42.0382 -1.46813 63.2285 0.106149C67.6452 0.434272 69.5049 0.106151 74.582 0.106151H209.859Z" fill="#1FCEC9"/>
<path d="M112.554 35.0927C123.668 35.0927 134.7 34.8505 145.759 35.1492C164.727 35.6578 181.13 41.608 195.45 52.6768C210.741 64.4803 219.161 79.1337 221.3 96.5887C225.153 128.019 213.4 155.921 178.528 172.536C168.932 177.106 158.207 178.349 147.444 179.181C131.032 180.456 114.592 179.706 98.1699 179.988C89.834 180.133 81.6649 178.898 73.3383 179.019C70.4604 179.013 67.6921 178.057 65.5905 176.343C63.4888 174.63 62.2098 172.286 62.0107 169.783C61.7329 164.632 66.8826 159.925 73.9125 159.013C75.4505 158.872 76.9983 158.829 78.5435 158.884C97.1418 158.884 115.74 159.078 134.338 158.803C143.86 158.795 153.336 157.654 162.504 155.412C181.955 150.366 193.217 139.072 197.052 121.818C201.201 103.12 198.904 85.5602 185.011 70.1479C176.147 60.3789 164.023 55.5833 149.917 54.6064C125.836 52.9109 101.699 54.1058 77.5896 53.7506C76.0572 53.799 74.5233 53.7042 73.0141 53.468C67.4568 52.3377 63.4093 47.9134 63.8724 43.7233C64.3818 39.081 69.8465 35.2299 76.5893 35.1573C88.5744 35.0362 100.569 35.1573 112.554 35.1573V35.0927Z" fill="#1FCEC9"/>
</svg>
