<svg width="166" height="70" viewBox="0 0 166 70" fill="none" xmlns="http://www.w3.org/2000/svg">
<path d="M32.2876 25.1184V45.8757C33.5086 45.8757 36.5056 45.3207 37.8377 44.8766V30.7795L32.2876 25.1184Z" fill="#3B5CC0"/>
<path d="M24.9214 25.145L25.1434 45.1253C26.5864 45.6803 28.5844 46.0133 30.4715 46.0133V30.8061L24.9214 25.145Z" fill="#3B5CC0"/>
<path d="M17.5952 25.3669V41.1291C18.8162 42.0171 21.9243 44.2372 22.9233 44.3482L23.1453 31.028L17.5952 25.3669Z" fill="#3B5CC0"/>
<path d="M31.6777 25.1184V45.8757C32.8987 45.8757 35.8958 45.3207 37.2278 44.8766V30.7795L31.6777 25.1184Z" fill="#2D286B"/>
<path d="M24.3113 25.145L24.5333 45.1253C25.9763 45.6803 27.9743 46.0133 29.8613 46.0133V30.8061L24.3113 25.145Z" fill="#2D286B"/>
<path d="M16.9851 25.3669V41.1291C18.2061 42.0171 21.3142 44.2372 22.3132 44.3482L22.5352 31.028L16.9851 25.3669Z" fill="#2D286B"/>
<g filter="url(#filter0_d_429_263)">
<path d="M13.3205 43.904C-0.109061 33.2479 6.8824 17.0417 12.2105 11.7136C10.3235 14.4887 4.10729 27.1428 13.3205 38.1319C25.0951 52.1763 39.8411 44.9356 42.6133 43.1534C42.8812 42.9167 43.0357 42.783 43.0688 42.794C43.1043 42.8058 42.944 42.9408 42.6133 43.1534C40.1852 45.2985 28.4417 55.9025 13.3205 43.904Z" fill="#C0EBF8"/>
</g>
<g filter="url(#filter1_d_429_263)">
<path d="M21.8344 9.36263C33.3916 6.24832 39.962 15.8206 41.0718 22.2588C40.1045 20.0404 35.5554 11.0182 25.352 11.8345C11.5847 12.936 10.5438 26.0729 10.6983 28.8602C10.7711 29.254 10.8113 29.4403 10.7686 29.3628C10.7409 29.3126 10.7137 29.1376 10.6983 28.8602C10.1866 26.0921 8.06588 13.0728 21.8344 9.36263Z" fill="#85B3F9"/>
</g>
<path d="M33.4134 58.4452C10.259 59.6449 2.81401 40.87 2 31.6939C4.33103 45.2361 20.4262 56.4644 35.3004 51.5631C47.1997 47.6422 51.5806 38.6813 52.2836 34.6909L48.7608 34.6909L56.3907 22.9248L63.2727 34.9129H59.7207C59.7207 34.9129 54.8366 57.3352 33.4134 58.4452Z" fill="#2D286B"/>
<path d="M12.3971 44.8449C-1.0324 34.1888 5.95906 17.9826 11.2871 12.6545C9.40017 15.4296 3.18395 28.0837 12.3971 39.0729C24.1718 53.1172 38.9178 45.8765 41.6899 44.0943C41.9579 43.8576 42.1124 43.7239 42.1455 43.7349C42.181 43.7467 42.0207 43.8817 41.6899 44.0943C39.2619 46.2394 27.5183 56.8434 12.3971 44.8449Z" fill="#52C8EB"/>
<path d="M21.6809 8.21992C33.0853 5.09147 39.5205 14.5276 40.5869 20.8883C39.6429 18.6991 35.1977 9.79824 25.1374 10.6489C11.5632 11.7967 10.4812 24.7897 10.6216 27.5448C10.6917 27.9339 10.7305 28.1179 10.6888 28.0415C10.6617 27.9919 10.6356 27.8191 10.6216 27.5448C10.1291 24.8102 8.09439 11.947 21.6809 8.21992Z" fill="#3B69AE"/>
<path d="M85.4232 49.4158H82.5545C82.5545 49.4158 82.6212 51.5 81.5982 52.6687C81.3854 52.9118 79.2076 52.8083 78.61 52.2059C78.0124 51.6035 76.7328 49.6204 78.7409 47.5C80.749 45.3796 83.3491 46.4842 84.385 47.3677L86.2663 45.7353C86.3858 45.8558 84.8256 43.7533 81.4787 43.5124C77.1689 43.2021 71.9553 48.7952 75.3826 53.1507C78.1318 56.6445 82.674 55.5602 84.5865 54.235L85.4232 49.4158Z" fill="#2D286B"/>
<path d="M100.975 55.5H91.2727L93.6982 43.5H103.273L102.634 46.0263H96.3791L96.1238 48.4263H101.485L101.102 50.7L95.6131 50.8263L95.2302 52.9737H101.485L100.975 55.5Z" fill="#2D286B"/>
<path fill-rule="evenodd" clip-rule="evenodd" d="M111.101 43.3046C113.162 43.047 117.791 43.1416 118.959 43.6913C119.672 44.0266 123.082 45.4948 122.18 50.0028C121.459 53.6094 118.186 55.1125 116.64 55.413H108.525L111.101 43.3046ZM112.625 52.6513C112.625 52.6513 115.899 52.9422 116.598 52.5233C119.161 50.9856 120.058 47.7813 117.119 45.9872H113.779L112.625 52.6513Z" fill="#2D286B"/>
<path d="M140.702 55.4131H137.11L136.619 53.1172H131.967L130.614 55.4131H126.923L134.674 43.1689H137.872L140.702 55.4131ZM132.97 50.5479H135.963L135.09 47.0557L132.97 50.5479Z" fill="#2D286B"/>
<path d="M146.891 46.5625L145.13 55.5H148.4L150.161 46.5625H146.891Z" fill="#2D286B"/>
<ellipse cx="148.903" cy="44.125" rx="2.09654" ry="1.625" fill="#2D286B"/>
<defs>
<filter id="filter0_d_429_263" x="0.867871" y="11.7136" width="50.9059" height="57.5142" filterUnits="userSpaceOnUse" color-interpolation-filters="sRGB">
<feFlood flood-opacity="0" result="BackgroundImageFix"/>
<feColorMatrix in="SourceAlpha" type="matrix" values="0 0 0 0 0 0 0 0 0 0 0 0 0 0 0 0 0 0 127 0" result="hardAlpha"/>
<feOffset dx="2" dy="13"/>
<feGaussianBlur stdDeviation="3.35"/>
<feColorMatrix type="matrix" values="0 0 0 0 0 0 0 0 0 0 0 0 0 0 0 0 0 0 0.15 0"/>
<feBlend mode="normal" in2="BackgroundImageFix" result="effect1_dropShadow_429_263"/>
<feBlend mode="normal" in="SourceGraphic" in2="effect1_dropShadow_429_263" result="shape"/>
</filter>
<filter id="filter1_d_429_263" x="5.57368" y="8.7561" width="44.1981" height="40.324" filterUnits="userSpaceOnUse" color-interpolation-filters="sRGB">
<feFlood flood-opacity="0" result="BackgroundImageFix"/>
<feColorMatrix in="SourceAlpha" type="matrix" values="0 0 0 0 0 0 0 0 0 0 0 0 0 0 0 0 0 0 127 0" result="hardAlpha"/>
<feOffset dx="2" dy="13"/>
<feGaussianBlur stdDeviation="3.35"/>
<feColorMatrix type="matrix" values="0 0 0 0 0 0 0 0 0 0 0 0 0 0 0 0 0 0 0.07 0"/>
<feBlend mode="normal" in2="BackgroundImageFix" result="effect1_dropShadow_429_263"/>
<feBlend mode="normal" in="SourceGraphic" in2="effect1_dropShadow_429_263" result="shape"/>
</filter>
</defs>
</svg>
